<svg id="Layer_1" data-name="Layer 1" xmlns="http://www.w3.org/2000/svg" viewBox="0 0 235 138"><defs><style>.cls-1{fill:#fff;}.cls-2{fill:#ee2e81;}</style></defs><title>logo</title><path class="cls-1" d="M137.43,6.5h.08a17,17,0,0,1,12.33,5.26,19.2,19.2,0,0,1,2.89,3.82l.27.55c-2.43,1.25-3.86,2-4.31,2.2a12.17,12.17,0,0,0-1.88-2.73,12.9,12.9,0,0,0-9.3-4.31,12.54,12.54,0,0,0-9.93,4.94,14,14,0,0,0-2.93,8.59,13.87,13.87,0,0,0,4.51,10.31,12.39,12.39,0,0,0,17.65-1.05,14,14,0,0,0,3.06-5.85h-9.22l-.06-.07V23.47h0v0h14.56l.07.08a31.6,31.6,0,0,1-.47,5A18.18,18.18,0,0,1,152.24,35a17.21,17.21,0,0,1-26.51,3.63,18.53,18.53,0,0,1-5.87-13.66v-.1a18.62,18.62,0,0,1,5.82-13.58,18.19,18.19,0,0,1,1.75-1.4,16.73,16.73,0,0,1,10-3.29"/><polygon class="cls-1" points="162.27 6.5 181.97 6.5 182 6.53 182 11.34 167.09 11.34 167.09 22.44 178.89 22.44 178.92 22.47 178.92 27.23 178.89 27.25 167.09 27.25 167.09 38.36 182 38.36 182 43.17 181.97 43.2 162.27 43.2 162.25 43.17 162.25 6.53 162.27 6.5"/><polygon class="cls-1" points="185.11 6.5 209.42 6.5 209.45 6.53 209.45 11.31 209.42 11.34 199.7 11.34 199.7 43.17 199.67 43.2 194.86 43.2 194.83 43.17 194.83 11.34 185.11 11.34 185.09 11.31 185.09 6.53 185.11 6.5"/><path class="cls-2" d="M154.4,51.42,141.15,81h-.05l-6.75-15Q128,51.58,127.81,51.43h-5.87l-.08.07V65.19h-20.6a4.07,4.07,0,0,0-3.67,2.27L91.47,79,84,56.77A4.37,4.37,0,0,0,80,54a4.14,4.14,0,0,0-4,2.63L70.67,68.85l-8.05-49a4.3,4.3,0,0,0-4.38-3.49,3.87,3.87,0,0,0-4,3.49L46.87,76.72,41.11,46.25a4.28,4.28,0,0,0-3.68-3.49,4.36,4.36,0,0,0-4.38,2.45l-9.61,20H8.57v8.38H26.24a4.33,4.33,0,0,0,3.84-2.27l5.07-10.64,8.23,43.19a4.63,4.63,0,0,0,4.2,3.51h.17a4,4,0,0,0,4-3.67l7.15-56,6,36.76a4.66,4.66,0,0,0,3.67,3.67,5.2,5.2,0,0,0,4.55-2.62L79.4,70.28l7.18,20.81a3.92,3.92,0,0,0,3.67,2.79,4.21,4.21,0,0,0,4.2-2.27l9.44-18h18V88.07l.08.08h5l0-.08V61.32h0l11.27,25.16a8.12,8.12,0,0,0,.75,1.61h4.11l.1-.1,11.93-26.67h0V88l.05.08h5l.08-.08V51.49l-.08-.07Z"/><polygon class="cls-2" points="169.02 51.42 168.99 51.44 168.99 88.09 169.02 88.12 188.72 88.12 188.74 88.09 188.74 83.28 173.83 83.28 173.83 72.17 185.64 72.17 185.66 72.15 185.66 67.39 185.64 67.36 173.83 67.36 173.83 56.26 188.74 56.26 188.74 51.44 188.72 51.42 169.02 51.42"/><path class="cls-2" d="M220.05,58.77a19.26,19.26,0,0,0-2.66-2.83,18.32,18.32,0,0,0-12-4.5h-9.57l-.08.08V88l.08.08h9.77a18.13,18.13,0,0,0,6.59-1.31,19.06,19.06,0,0,0,6-3.86,18.14,18.14,0,0,0,5.57-13v-.28A18,18,0,0,0,220.05,58.77ZM215.67,78.6A13.71,13.71,0,0,1,205,83.31h-4.41v-27l0,0h3.83a16.38,16.38,0,0,1,4.92.63,12.91,12.91,0,0,1,3.13,1.45A12.63,12.63,0,0,1,215.63,61a13.35,13.35,0,0,1,.08,17.62Z"/><path class="cls-1" d="M137.43,96.33h.08a17,17,0,0,1,12.33,5.27,19.26,19.26,0,0,1,2.89,3.83l.27.55c-2.43,1.25-3.86,2-4.31,2.21a12.82,12.82,0,0,0-1.88-2.74,12,12,0,0,0-2.33-2,12.11,12.11,0,0,0-7-2.25,12.53,12.53,0,0,0-9.93,4.93,14.15,14.15,0,0,0-2.93,8.58,13.87,13.87,0,0,0,4.51,10.3,12.38,12.38,0,0,0,17.65-1.06,14,14,0,0,0,3.06-5.84h-9.22l-.06-.07V113.3h0v-.07h14.56l.07.08a31.23,31.23,0,0,1-.47,5,18.16,18.16,0,0,1-2.51,6.42,17.23,17.23,0,0,1-26.51,3.63,18.56,18.56,0,0,1-5.87-13.66v-.1A18.58,18.58,0,0,1,125.68,101a17.89,17.89,0,0,1,11.77-4.69"/><path class="cls-1" d="M178,96.33h.07A17.22,17.22,0,0,1,190.85,102a18.9,18.9,0,0,1-.88,26.22,17.21,17.21,0,0,1-23.72.1,18.82,18.82,0,0,1-5.84-13.63v-.1A18.62,18.62,0,0,1,166.22,101l1.68-1.38A17.21,17.21,0,0,1,178,96.33m-12.79,18.33a13.87,13.87,0,0,0,4.51,10.3,12.4,12.4,0,0,0,8.35,3.2q6,0,10.15-5.31a13.9,13.9,0,0,0,2.61-8v-.32a13.84,13.84,0,0,0-3.6-9.28,12.35,12.35,0,0,0-19.1.81,14.14,14.14,0,0,0-2.93,8.57"/></svg>