<svg xmlns="http://www.w3.org/2000/svg" xmlns:xlink="http://www.w3.org/1999/xlink" width="295" height="192" viewBox="0 0 295 192">
  <defs>
    <clipPath id="clip-logo">
      <rect width="295" height="192"/>
    </clipPath>
  </defs>
  <g id="logo" clip-path="url(#clip-logo)">
    <rect width="295" height="192" fill="rgba(255,255,255,0)"/>
    <g id="Logo-Dark" transform="translate(-46.397 -16.78)">
      <path id="Path_21" data-name="Path 21" d="M258.266,35.78h.092a20.985,20.985,0,0,1,15.165,6.471,23.286,23.286,0,0,1,3.539,4.717l.339.677q-4.47,2.308-5.3,2.708A15.858,15.858,0,0,0,258.358,41.7q-7.109,0-12.2,6.071A17.35,17.35,0,0,0,242.554,58.3,17.058,17.058,0,0,0,248.1,70.966a15.206,15.206,0,0,0,21.69-1.293,17.066,17.066,0,0,0,3.763-7.179H262.213l-.062-.092V56.639h0v-.062h17.881l.092.092a38.963,38.963,0,0,1-.585,6.194,22.444,22.444,0,0,1-3.078,7.887,21.289,21.289,0,0,1-32.624,4.44A22.806,22.806,0,0,1,236.63,58.4v-.139a22.9,22.9,0,0,1,7.148-16.7,20.829,20.829,0,0,1,2.154-1.724A20.621,20.621,0,0,1,258.243,35.8" transform="translate(-40.98 0)" fill="#102a4b"/>
      <path id="Path_22" data-name="Path 22" d="M304.431,35.78h24.214l.031.031v5.917H310.34v13.65h14.511l.031.031v5.848l-.031.038H310.34V74.936h18.335v5.917l-.031.031H304.431l-.031-.031V35.811Z" transform="translate(-56.606 0)" fill="#102a4b"/>
      <path id="Path_23" data-name="Path 23" d="M340.9,35.78h29.885l.031.031V41.7l-.031.031H358.836V80.853l-.031.031h-5.917l-.031-.031V41.728H340.9l-.031-.031V35.811Z" transform="translate(-65.015 0)" fill="#102a4b"/>
      <path id="Path_24" data-name="Path 24" d="M238.145,94.627l-16.3,36.317h-.061L213.5,112.478q-7.856-17.658-8.04-17.835h-7.217l-.092.092v16.812h-25.3a5.017,5.017,0,0,0-4.516,2.8l-7.525,14.18-9.233-27.307a5.386,5.386,0,0,0-4.932-3.439,5.1,5.1,0,0,0-4.955,3.232l-6.448,15.05-9.91-60.215a5.288,5.288,0,0,0-5.386-4.293,4.755,4.755,0,0,0-4.955,4.293l-9,69.91L98.895,88.341a5.271,5.271,0,0,0-4.524-4.332,5.386,5.386,0,0,0-5.386,3.008L77.174,111.531H58.9v10.318H80.613a5.317,5.317,0,0,0,4.724-2.793l6.24-13.08,10.1,53.09a5.711,5.711,0,0,0,5.171,4.309h.2a4.94,4.94,0,0,0,4.955-4.517l8.81-68.794,7.3,45.134a5.755,5.755,0,0,0,4.516,4.524,6.432,6.432,0,0,0,5.6-3.232l7.733-18.7,8.81,25.583a4.863,4.863,0,0,0,4.524,3.439,5.186,5.186,0,0,0,5.147-2.8l11.618-22.136h22.09v17.728l.092.092h6.155l.062-.092V106.792h.062l13.85,30.931a11.072,11.072,0,0,0,.923,1.977h5.047l.123-.123,14.665-32.785h.062v32.816l.062.092h6.155l.092-.092V94.719l-.092-.092Z" transform="translate(0 -3.633)" fill="#ee2e81"/>
      <path id="Path_25" data-name="Path 25" d="M315.2,107.54l-.031.031v45.042l.031.031h24.214l.031-.031V146.7H321.11v-13.65h14.511l.031-.031V127.16l-.031-.031H321.11V113.48h18.335v-5.909l-.031-.031Z" transform="translate(-59.089 -16.546)" fill="#ee2e81"/>
      <path id="Path_26" data-name="Path 26" d="M387.784,116.544a24.487,24.487,0,0,0-3.262-3.485,22.59,22.59,0,0,0-14.758-5.478H358.022l-.092.092V152.53l.092.092h12.018a22.313,22.313,0,0,0,8.1-1.608,23.746,23.746,0,0,0,7.364-4.74,22.4,22.4,0,0,0,6.84-16.019v-.339a22.142,22.142,0,0,0-4.563-13.373ZM382.4,140.911a16.85,16.85,0,0,1-13.08,5.794h-5.386V113.582l.061-.062h4.717a20.264,20.264,0,0,1,6.032.769,16.161,16.161,0,0,1,3.847,1.793,15.559,15.559,0,0,1,3.786,3.2,16.4,16.4,0,0,1,.092,21.659Z" transform="translate(-68.949 -16.555)" fill="#ee2e81"/>
      <path id="Path_27" data-name="Path 27" d="M258.275,179.29h.092a20.986,20.986,0,0,1,15.165,6.471,23.291,23.291,0,0,1,3.539,4.717l.339.677c-2.978,1.539-4.747,2.462-5.3,2.708a15.858,15.858,0,0,0-13.742-8.641q-7.109,0-12.2,6.071a17.35,17.35,0,0,0-3.609,10.533,17.058,17.058,0,0,0,5.547,12.634,15.206,15.206,0,0,0,21.69-1.293,17.065,17.065,0,0,0,3.763-7.179H262.222l-.062-.092v-5.748h0v-.062h17.881l.092.092a38.956,38.956,0,0,1-.585,6.155,22.506,22.506,0,0,1-3.078,7.887,21.174,21.174,0,0,1-32.593,4.463,22.805,22.805,0,0,1-7.21-16.789v-.123a22.9,22.9,0,0,1,7.148-16.7,20.85,20.85,0,0,1,2.154-1.723,20.62,20.62,0,0,1,12.311-4.039" transform="translate(-40.989 -33.09)" fill="#102a4b"/>
      <path id="Path_28" data-name="Path 28" d="M323.094,179.29h.092q8.933,0,15.681,6.994a23.221,23.221,0,0,1-1.077,32.223,21.163,21.163,0,0,1-29.161.123,23.028,23.028,0,0,1-3.693-4.555,22.792,22.792,0,0,1-3.485-12.2v-.123a22.9,22.9,0,0,1,7.148-16.7l2.07-1.693a21.074,21.074,0,0,1,12.411-4.07m-15.712,22.521a17.035,17.035,0,0,0,5.563,12.649,15.289,15.289,0,0,0,10.257,3.939q7.4,0,12.48-6.532a17.051,17.051,0,0,0,3.2-9.795v-.4a17,17,0,0,0-4.4-11.4,15.277,15.277,0,0,0-11.28-5.047q-7.11,0-12.2,6.071a17.3,17.3,0,0,0-3.609,10.533" transform="translate(-55.926 -33.09)" fill="#102a4b"/>
    </g>
  </g>
</svg>
