<svg xmlns="http://www.w3.org/2000/svg" xmlns:xlink="http://www.w3.org/1999/xlink" width="513" height="459" viewBox="0 0 513 459">
  <defs>
    <clipPath id="clip-chooseProfile_Appointment">
      <rect width="513" height="459"/>
    </clipPath>
  </defs>
  <g id="chooseProfile_Appointment" clip-path="url(#clip-chooseProfile_Appointment)">
    <rect width="513" height="459" fill="rgba(255,255,255,0)"/>
    <g id="Group_862" data-name="Group 862" transform="translate(-579.224 -169.422)">
      <g id="Group_297" data-name="Group 297" transform="translate(649.224 210.422)" opacity="0.2">
        <path id="Path_445" data-name="Path 445" d="M722.311,282.7s16.458-3.152,15.85-34.13,41.2-32.178,114.177-34.431,123.864,4.507,140.082,48.439-5.676,72.47-52.708,80.731-20.3,33.46,6.892,36.986c37.551,4.87,54.836,40.767,34.157,67.24s-45.266,30.91-51.326,62.461c-7.635,39.755-70.86,83.162-158.567,76.419-97.63-7.5-135.109-70.6-117.4-134.025,9.859-35.312,49.262-51.254,79.063-59.14S748.339,351,697.253,359.453s-58.406-44.4-30.953-59.081C690.62,287.364,700.417,291.71,722.311,282.7Z" transform="translate(-649.224 -210.609)" fill="#fff"/>
        <g id="Group_296" data-name="Group 296" transform="translate(27.398)">
          <circle id="Ellipse_19" data-name="Ellipse 19" cx="12.134" cy="12.134" r="12.134" transform="translate(21.421 37.942)" fill="#fff"/>
          <circle id="Ellipse_20" data-name="Ellipse 20" cx="7.988" cy="7.988" r="7.988" transform="translate(40.297 19.07)" fill="#fff"/>
          <circle id="Ellipse_21" data-name="Ellipse 21" cx="6.257" cy="6.257" r="6.257" transform="translate(0 57.953)" fill="#fff"/>
          <circle id="Ellipse_22" data-name="Ellipse 22" cx="8.696" cy="8.696" r="8.696" transform="translate(9.968 17.298)" fill="#fff"/>
          <circle id="Ellipse_23" data-name="Ellipse 23" cx="4.856" cy="4.856" r="4.856" transform="translate(65.954)" fill="#fff"/>
        </g>
      </g>
      <g id="Group_345" data-name="Group 345" transform="translate(893.781 261.033)">
        <g id="Group_316" data-name="Group 316" transform="translate(22.547 0)" opacity="0.32">
          <g id="Group_298" data-name="Group 298" transform="translate(15.259 12.458)">
            <path id="Path_446" data-name="Path 446" d="M974.809,445.43l-.656-.537A128.9,128.9,0,0,0,997.6,391.435c5.158-28.93.8-72.113-49.256-113.549l.54-.653c22.239,18.408,37.443,38.7,45.193,60.327a104.06,104.06,0,0,1,4.354,54.059A129.787,129.787,0,0,1,974.809,445.43Z" transform="translate(-948.34 -277.233)" fill="#e3136e"/>
          </g>
          <g id="Group_299" data-name="Group 299">
            <path id="Path_447" data-name="Path 447" d="M954.547,282.744S938.6,279.6,933.3,269.846,942.494,261.495,954.547,282.744Z" transform="translate(-932.176 -264.036)" fill="#e3136e"/>
          </g>
          <g id="Group_300" data-name="Group 300" transform="translate(25.527 1.832)">
            <path id="Path_448" data-name="Path 448" d="M969.066,295.9s2.442-21.707-3.5-28.282S953.484,274.933,969.066,295.9Z" transform="translate(-959.217 -265.976)" fill="#e3136e"/>
          </g>
          <g id="Group_301" data-name="Group 301" transform="translate(3.101 21.856)">
            <path id="Path_449" data-name="Path 449" d="M965.83,294.86s-19.315-10.2-27.6-7.076S940.617,301.7,965.83,294.86Z" transform="translate(-935.461 -287.188)" fill="#e3136e"/>
          </g>
          <g id="Group_302" data-name="Group 302" transform="translate(12.857 34.01)">
            <path id="Path_450" data-name="Path 450" d="M976.165,307.734s-19.315-10.2-27.6-7.075S950.952,314.579,976.165,307.734Z" transform="translate(-945.796 -300.063)" fill="#e3136e"/>
          </g>
          <g id="Group_303" data-name="Group 303" transform="translate(22.261 47.419)">
            <path id="Path_451" data-name="Path 451" d="M986.127,321.94s-19.315-10.2-27.605-7.076S960.913,328.784,986.127,321.94Z" transform="translate(-955.757 -314.268)" fill="#e3136e"/>
          </g>
          <g id="Group_304" data-name="Group 304" transform="translate(30.457 62.15)">
            <path id="Path_452" data-name="Path 452" d="M994.392,339.473s-18.436-11.716-26.95-9.262S968.712,344.277,994.392,339.473Z" transform="translate(-964.44 -329.873)" fill="#e3136e"/>
          </g>
          <g id="Group_305" data-name="Group 305" transform="translate(37.719 77.288)">
            <path id="Path_453" data-name="Path 453" d="M1000.12,360.69s-15.534-15.357-24.374-14.764S974,359.942,1000.12,360.69Z" transform="translate(-972.133 -345.909)" fill="#e3136e"/>
          </g>
          <g id="Group_306" data-name="Group 306" transform="translate(43.789 92.948)">
            <path id="Path_454" data-name="Path 454" d="M1001.42,384.517s-9.8-19.521-18.367-21.788S976.918,375.451,1001.42,384.517Z" transform="translate(-978.563 -362.498)" fill="#e3136e"/>
          </g>
          <g id="Group_307" data-name="Group 307" transform="translate(46.328 111.953)">
            <path id="Path_455" data-name="Path 455" d="M996.73,410.281s-2.722-21.673-10.037-26.671S976.661,393.553,996.73,410.281Z" transform="translate(-981.253 -382.631)" fill="#e3136e"/>
          </g>
          <g id="Group_308" data-name="Group 308" transform="translate(42.71 132.334)">
            <path id="Path_456" data-name="Path 456" d="M987.383,434.116s2.336-21.718-3.634-28.265S971.7,413.221,987.383,434.116Z" transform="translate(-977.42 -404.221)" fill="#e3136e"/>
          </g>
          <g id="Group_309" data-name="Group 309" transform="translate(42.039 11.312)">
            <path id="Path_457" data-name="Path 457" d="M980.936,310.2s8.306-16.866,4.914-28.7-9.545-1.865-9.12,5.133S980.936,310.2,980.936,310.2Z" transform="translate(-976.709 -276.019)" fill="#e3136e"/>
          </g>
          <g id="Group_310" data-name="Group 310" transform="translate(52.96 23.689)">
            <path id="Path_458" data-name="Path 458" d="M988.929,322.763s10.87-15.341,9.39-27.563-9.128-3.351-9.817,3.627S988.929,322.763,988.929,322.763Z" transform="translate(-988.278 -289.13)" fill="#e3136e"/>
          </g>
          <g id="Group_311" data-name="Group 311" transform="translate(59.718 38.961)">
            <path id="Path_459" data-name="Path 459" d="M995.437,336.7s14.13-12.4,15.523-24.635-8.1-5.376-10.39,1.253S995.437,336.7,995.437,336.7Z" transform="translate(-995.437 -305.308)" fill="#e3136e"/>
          </g>
          <g id="Group_312" data-name="Group 312" transform="translate(64.597 54.655)">
            <path id="Path_460" data-name="Path 460" d="M1000.6,353.321s14.13-12.4,15.523-24.635-8.1-5.376-10.391,1.253S1000.6,353.321,1000.6,353.321Z" transform="translate(-1000.605 -321.933)" fill="#e3136e"/>
          </g>
          <g id="Group_313" data-name="Group 313" transform="translate(66.646 76.392)">
            <path id="Path_461" data-name="Path 461" d="M1002.776,374.42s15.611-10.478,18.569-22.428-7.342-6.376-10.464-.1S1002.776,374.42,1002.776,374.42Z" transform="translate(-1002.776 -344.96)" fill="#e3136e"/>
          </g>
          <g id="Group_314" data-name="Group 314" transform="translate(64.072 104.431)">
            <path id="Path_462" data-name="Path 462" d="M1000.049,400.489s17.316-7.324,22.489-18.5-6-7.653-10.255-2.082S1000.049,400.489,1000.049,400.489Z" transform="translate(-1000.049 -374.663)" fill="#e3136e"/>
          </g>
          <g id="Group_315" data-name="Group 315" transform="translate(57.676 129.828)">
            <path id="Path_463" data-name="Path 463" d="M993.274,422.712s18.434-3.7,25.746-13.6-4.339-8.7-9.629-4.1S993.274,422.712,993.274,422.712Z" transform="translate(-993.274 -401.566)" fill="#e3136e"/>
          </g>
        </g>
        <g id="Group_325" data-name="Group 325" transform="translate(39.657 204.661)">
          <g id="Group_317" data-name="Group 317">
            <path id="Path_464" data-name="Path 464" d="M974.415,500.652s21.85-16.986,31.583-11.933,16.574-7.8,23.918-7.88,14.073,6.67,3.243,14.4-10.855,8.866-8.316,17.943-15.588,14.622-24.365,15.917,7.261,5.494-.653,11.208-30.583-.727-44.758-10.869,7.1-35.989,14.247-37.21S969.137,499.093,974.415,500.652Z" transform="translate(-950.3 -480.839)" fill="#e3136e"/>
          </g>
          <g id="Group_318" data-name="Group 318" transform="translate(0 6.941)">
            <path id="Path_465" data-name="Path 465" d="M993.5,536.671c6.884-9.013-7.755-9.968-6.059-13.361,3.942-9.461,28-19.035,21.228-33.2a10.526,10.526,0,0,1-2.672-.976c-9.734-5.053-31.583,11.933-31.583,11.933-5.278-1.56,2.045-9.642-5.1-8.42s-28.423,27.068-14.247,37.21a75.924,75.924,0,0,0,30.475,12.556A13.055,13.055,0,0,0,993.5,536.671Z" transform="translate(-950.3 -488.192)" fill="#d3096a"/>
          </g>
          <g id="Group_324" data-name="Group 324" transform="translate(0.441 4.439)" opacity="0.6">
            <g id="Group_319" data-name="Group 319" transform="translate(0 0.664)">
              <path id="Path_466" data-name="Path 466" d="M951.151,525.988a.631.631,0,0,1,.155-1.206c.359-.053,36.394-5.646,80.047-38.41a.631.631,0,0,1,.757,1.009c-43.93,32.972-80.258,38.6-80.621,38.649A.628.628,0,0,1,951.151,525.988Z" transform="translate(-950.767 -486.246)" fill="#fff"/>
            </g>
            <g id="Group_320" data-name="Group 320" transform="translate(67.657)">
              <path id="Path_467" data-name="Path 467" d="M1022.438,496.107l3.627-10.147a.631.631,0,1,1,1.188.425l-3.137,8.779,7.312,1.506a.631.631,0,0,1-.254,1.236Z" transform="translate(-1022.438 -485.542)" fill="#fff"/>
            </g>
            <g id="Group_321" data-name="Group 321" transform="translate(50.024 5.486)">
              <path id="Path_468" data-name="Path 468" d="M1023.283,517.5a.526.526,0,0,1-.053-.025l-19.471-10.508,4.057-15.145a.631.631,0,0,1,1.219.328l-3.8,14.181,18.593,10.034a.631.631,0,0,1-.547,1.136Z" transform="translate(-1003.759 -491.354)" fill="#fff"/>
            </g>
            <g id="Group_322" data-name="Group 322" transform="translate(28.863 10.175)">
              <path id="Path_469" data-name="Path 469" d="M1003.528,527.963l-.026-.012-22.159-10.6,7.242-20.606a.631.631,0,1,1,1.19.417L982.908,516.7l21.138,10.114a.631.631,0,0,1-.518,1.15Z" transform="translate(-981.342 -496.32)" fill="#fff"/>
            </g>
            <g id="Group_323" data-name="Group 323" transform="translate(10.04 12.478)">
              <path id="Path_470" data-name="Path 470" d="M993.247,539.168l-.024-.01L961.4,524.083l7.02-24.864a.631.631,0,0,1,1.215.343L962.907,523.4l30.856,14.618a.631.631,0,0,1-.516,1.151Z" transform="translate(-961.403 -498.76)" fill="#fff"/>
            </g>
          </g>
        </g>
        <g id="Group_334" data-name="Group 334" transform="translate(0 166.532)">
          <g id="Group_326" data-name="Group 326">
            <path id="Path_471" data-name="Path 471" d="M930.042,495.5s18.1-32.52,32.8-31.39,16.4-18.38,25.451-22.34,20.926.848,11.594,16.119-8.767,16.684-.849,26.582-11.594,26.3-21.774,32.521,11.876,2.977,5.09,14.215-38.229,15.2-61.108,10.105S911.1,493.039,919.3,487.765,922.69,496.348,930.042,495.5Z" transform="translate(-908.291 -440.448)" fill="#e3136e"/>
          </g>
          <g id="Group_327" data-name="Group 327" transform="translate(0 0.955)">
            <path id="Path_472" data-name="Path 472" d="M946.737,512.87c24.6-2.545,47.686-22.719,39.2-51.564-.768-4.609,2.626-12.691,3.278-19.846-.31.113-.616.234-.919.367-9.049,3.958-10.746,23.471-25.451,22.34s-32.8,31.39-32.8,31.39c-7.353.849-2.545-13.008-10.745-7.735s-20.926,48.457,1.953,53.547a100.526,100.526,0,0,0,23.146,2.169C947.947,539.781,946.868,518.237,946.737,512.87Z" transform="translate(-908.291 -441.46)" fill="#d3096a"/>
          </g>
          <g id="Group_333" data-name="Group 333" transform="translate(5.256 6.628)" opacity="0.6">
            <g id="Group_328" data-name="Group 328">
              <path id="Path_473" data-name="Path 473" d="M914.708,539.129a.848.848,0,0,1-.442-1.573c.415-.254,42.065-26.141,78.84-89.662a.848.848,0,1,1,1.468.851c-37.008,63.923-79.005,90-79.426,90.261A.84.84,0,0,1,914.708,539.129Z" transform="translate(-913.858 -447.47)" fill="#fff"/>
            </g>
            <g id="Group_329" data-name="Group 329" transform="translate(67.539 3.961)">
              <path id="Path_474" data-name="Path 474" d="M986.258,467.029l-.852-14.466a.848.848,0,0,1,1.694-.1l.738,12.515,9.842-1.986a.848.848,0,0,1,.336,1.663Z" transform="translate(-985.404 -451.666)" fill="#fff"/>
            </g>
            <g id="Group_330" data-name="Group 330" transform="translate(49.158 19.795)">
              <path id="Path_475" data-name="Path 475" d="M998.6,493.043a.735.735,0,0,1-.079,0l-29.625-2.755-2.95-20.878a.848.848,0,0,1,1.68-.237l2.763,19.549,28.29,2.631a.849.849,0,0,1-.078,1.694Z" transform="translate(-965.933 -468.439)" fill="#fff"/>
            </g>
            <g id="Group_331" data-name="Group 331" transform="translate(29.363 35.068)">
              <path id="Path_476" data-name="Path 476" d="M979.889,516.29h-.039l-33-1.456-1.883-29.314a.848.848,0,0,1,1.693-.109l1.785,27.794,31.481,1.389a.849.849,0,0,1-.036,1.7Z" transform="translate(-944.963 -484.618)" fill="#fff"/>
            </g>
            <g id="Group_332" data-name="Group 332" transform="translate(7.023 47.934)">
              <path id="Path_477" data-name="Path 477" d="M973.049,535.575h-.035L925.7,533.667,921.3,499.2a.848.848,0,1,1,1.683-.215L927.2,532.03l45.878,1.85a.848.848,0,0,1-.033,1.7Z" transform="translate(-921.298 -498.248)" fill="#fff"/>
            </g>
          </g>
        </g>
        <g id="Group_344" data-name="Group 344" transform="translate(1.517 105.567)">
          <g id="Group_336" data-name="Group 336">
            <g id="Group_335" data-name="Group 335">
              <path id="Path_478" data-name="Path 478" d="M924.863,452.453S929,415.466,943,410.83s8.03-23.289,14.847-30.436,19.63-7.3,16.921,10.39-1.643,18.776,9.484,24.848-.537,28.736-7.526,38.406,12.106-1.841,10.186,11.146-29.393,28.781-52.463,32.923-28.011-40.6-22.483-48.636S918.408,456.075,924.863,452.453Z" transform="translate(-909.898 -375.866)" fill="#e3136e"/>
            </g>
          </g>
          <g id="Group_337" data-name="Group 337" transform="translate(0 32.739)">
            <path id="Path_479" data-name="Path 479" d="M947.21,410.548A13.678,13.678,0,0,1,943,412.772c-14,4.636-18.134,41.623-18.134,41.623-6.455,3.622-7.373-11.015-12.9-2.984s-.587,52.779,22.483,48.636c1.239-.222,2.492-.484,3.751-.772A173.446,173.446,0,0,0,947.21,410.548Z" transform="translate(-909.898 -410.548)" fill="#ce0967"/>
          </g>
          <g id="Group_343" data-name="Group 343" transform="translate(6.299 7.336)" opacity="0.5">
            <g id="Group_338" data-name="Group 338" transform="translate(9.756)">
              <path id="Path_480" data-name="Path 480" d="M928.082,498.812a.849.849,0,0,1-1.016-1.28c.285-.395,28.7-40.359,38.093-113.155a.848.848,0,1,1,1.682.217c-9.448,73.257-38.113,113.535-38.4,113.933A.844.844,0,0,1,928.082,498.812Z" transform="translate(-926.905 -383.637)" fill="#fff"/>
            </g>
            <g id="Group_339" data-name="Group 339" transform="translate(38.837 8.133)">
              <path id="Path_481" data-name="Path 481" d="M964.172,406.486,957.8,393.472a.848.848,0,0,1,1.524-.746l5.514,11.259,8.311-5.633a.849.849,0,0,1,.953,1.4Z" transform="translate(-957.712 -392.253)" fill="#fff"/>
            </g>
            <g id="Group_340" data-name="Group 340" transform="translate(27.999 29.835)">
              <path id="Path_482" data-name="Path 482" d="M985.6,425.716a.708.708,0,0,1-.075.027l-28.39,8.9L946.35,416.526a.848.848,0,1,1,1.458-.868l10.1,16.964,27.11-8.5a.849.849,0,0,1,.582,1.593Z" transform="translate(-946.23 -415.242)" fill="#fff"/>
            </g>
            <g id="Group_341" data-name="Group 341" transform="translate(15.637 51.569)">
              <path id="Path_483" data-name="Path 483" d="M977.321,454.384l-.035.014-31,11.4L933.224,439.49a.849.849,0,0,1,1.52-.755l12.381,24.948L976.7,452.805a.848.848,0,0,1,.621,1.578Z" transform="translate(-933.135 -438.266)" fill="#fff"/>
            </g>
            <g id="Group_342" data-name="Group 342" transform="translate(0 72.067)">
              <path id="Path_484" data-name="Path 484" d="M978.462,474.815l-.033.013L934.052,491.34l-17.368-30.09a.849.849,0,0,1,1.47-.849l16.65,28.849,43.033-16.013a.848.848,0,0,1,.625,1.576Z" transform="translate(-916.57 -459.98)" fill="#fff"/>
            </g>
          </g>
        </g>
      </g>
      <g id="Group_359" data-name="Group 359" transform="translate(752.288 216.435)">
        <g id="Group_347" data-name="Group 347">
          <g id="Group_346" data-name="Group 346">
            <rect id="Rectangle_238" data-name="Rectangle 238" width="171.879" height="325.354" rx="18.573" fill="#e3136e"/>
            <rect id="Rectangle_239" data-name="Rectangle 239" width="162.019" height="314.178" rx="14.135" transform="translate(4.93 5.09)" fill="#ed3e92"/>
            <rect id="Rectangle_240" data-name="Rectangle 240" width="40.085" height="11.877" rx="5.939" transform="translate(63.246 300.158)" fill="#102a4b"/>
            <circle id="Ellipse_24" data-name="Ellipse 24" cx="4.459" cy="4.459" r="4.459" transform="translate(18.272 11.284)" fill="#102a4b"/>
            <circle id="Ellipse_25" data-name="Ellipse 25" cx="2.686" cy="2.686" r="2.686" transform="translate(31.993 13.057)" fill="#102a4b"/>
          </g>
          <rect id="Rectangle_241" data-name="Rectangle 241" width="148.747" height="265.75" transform="translate(11.001 27.62)" fill="#fff"/>
          <rect id="Rectangle_242" data-name="Rectangle 242" width="129.952" height="33.369" rx="6.89" transform="translate(20.463 35.256)" fill="#e6e8ff"/>
          <text id="Monday_11.00_AM" data-name="Monday 11.00 AM" transform="translate(82.893 54.607)" fill="#b9bdea" font-size="11" font-family="Montserrat-SemiBold, Montserrat" font-weight="600"><tspan x="-48.114" y="0">Monday 11.00 AM</tspan></text>
        </g>
        <g id="Group_354" data-name="Group 354" transform="translate(20.463 78.584)">
          <g id="Group_353" data-name="Group 353">
            <g id="Group_348" data-name="Group 348">
              <rect id="Rectangle_243" data-name="Rectangle 243" width="26.619" height="26.619" fill="#e6e8ff"/>
              <rect id="Rectangle_244" data-name="Rectangle 244" width="26.619" height="26.619" transform="translate(34.445)" fill="#e6e8ff"/>
              <rect id="Rectangle_245" data-name="Rectangle 245" width="26.619" height="26.619" transform="translate(68.889)" fill="#e6e8ff"/>
              <rect id="Rectangle_246" data-name="Rectangle 246" width="26.619" height="26.619" transform="translate(103.334)" fill="#e6e8ff"/>
            </g>
            <g id="Group_349" data-name="Group 349" transform="translate(0 34.039)">
              <rect id="Rectangle_247" data-name="Rectangle 247" width="26.619" height="26.619" fill="#e6e8ff"/>
              <rect id="Rectangle_248" data-name="Rectangle 248" width="26.619" height="26.619" transform="translate(34.445)" fill="#e6e8ff"/>
              <rect id="Rectangle_249" data-name="Rectangle 249" width="26.619" height="26.619" transform="translate(68.889)" fill="#e6e8ff"/>
              <rect id="Rectangle_250" data-name="Rectangle 250" width="26.619" height="26.619" transform="translate(103.334)" fill="#e6e8ff"/>
            </g>
            <g id="Group_351" data-name="Group 351" transform="translate(0 68.079)">
              <rect id="Rectangle_251" data-name="Rectangle 251" width="26.619" height="26.619" fill="#e6e8ff"/>
              <rect id="Rectangle_252" data-name="Rectangle 252" width="26.619" height="26.619" transform="translate(34.445)" fill="#e6e8ff"/>
              <g id="Group_350" data-name="Group 350" transform="translate(68.889)">
                <rect id="Rectangle_253" data-name="Rectangle 253" width="26.619" height="26.619" fill="#e3136e"/>
              </g>
              <rect id="Rectangle_254" data-name="Rectangle 254" width="26.619" height="26.619" transform="translate(103.334)" fill="#e6e8ff"/>
            </g>
            <g id="Group_352" data-name="Group 352" transform="translate(0 102.118)">
              <rect id="Rectangle_255" data-name="Rectangle 255" width="26.619" height="26.619" fill="#e6e8ff"/>
              <rect id="Rectangle_256" data-name="Rectangle 256" width="26.619" height="26.619" transform="translate(34.445)" fill="#e6e8ff"/>
              <rect id="Rectangle_257" data-name="Rectangle 257" width="26.619" height="26.619" transform="translate(68.889)" fill="#e6e8ff"/>
              <rect id="Rectangle_258" data-name="Rectangle 258" width="26.619" height="26.619" transform="translate(103.334)" fill="#e6e8ff"/>
            </g>
          </g>
        </g>
        <g id="Group_358" data-name="Group 358" transform="translate(20.969 213.837)">
          <g id="Group_357" data-name="Group 357" transform="translate(3.146)">
            <g id="Group_355" data-name="Group 355" transform="translate(0 8.635)">
              <path id="Path_485" data-name="Path 485" d="M890.1,473.56a.848.848,0,0,0-.849.849V493.49a3.79,3.79,0,0,1-3.785,3.785h-3.009a3.768,3.768,0,0,1-2.66-1.092l-42.68-42.14a5.452,5.452,0,0,0-3.852-1.58H792.913a5.482,5.482,0,0,0-5.177,7.287l1.857,5.322a5.487,5.487,0,0,0,5.176,3.677h29.254a3.761,3.761,0,0,1,2.677,1.108l10.562,10.563a3.786,3.786,0,0,1-2.676,6.463H810.535a5.488,5.488,0,0,0-5.483,5.482v5.579a5.488,5.488,0,0,0,5.483,5.482H837.11a3.818,3.818,0,0,1,0,7.636H783.949v1.7H837.11a5.514,5.514,0,0,0,0-11.029H810.535a3.79,3.79,0,0,1-3.785-3.785v-5.579a3.79,3.79,0,0,1,3.785-3.785h24.052a5.482,5.482,0,0,0,3.876-9.359L827.9,468.658a5.446,5.446,0,0,0-3.877-1.606H794.769a3.79,3.79,0,0,1-3.574-2.538l-1.857-5.322a3.786,3.786,0,0,1,3.575-5.032h40.354a3.764,3.764,0,0,1,2.66,1.092l42.68,42.14a5.457,5.457,0,0,0,3.851,1.58h3.009a5.487,5.487,0,0,0,5.482-5.482V474.409A.848.848,0,0,0,890.1,473.56Z" transform="translate(-783.949 -452.463)" fill="#e6e8ff"/>
            </g>
            <g id="Group_356" data-name="Group 356" transform="translate(94.698)">
              <path id="Path_486" data-name="Path 486" d="M907.172,454.768c0,6.326-11.453,23.118-11.453,23.118s-11.453-16.793-11.453-23.118a11.453,11.453,0,0,1,22.906,0Z" transform="translate(-884.266 -443.316)" fill="#b9bdea"/>
              <circle id="Ellipse_26" data-name="Ellipse 26" cx="6.151" cy="6.151" r="6.151" transform="translate(5.303 4.772)" fill="#8375ee"/>
            </g>
          </g>
          <circle id="Ellipse_27" data-name="Ellipse 27" cx="6.575" cy="6.575" r="6.575" transform="translate(0 61.506)" fill="#b9bdea"/>
          <circle id="Ellipse_28" data-name="Ellipse 28" cx="3.393" cy="3.393" r="3.393" transform="translate(3.181 64.688)" fill="#8375ee"/>
        </g>
      </g>
    </g>
  </g>
</svg>
