<svg xmlns="http://www.w3.org/2000/svg" xmlns:xlink="http://www.w3.org/1999/xlink" width="513" height="459" viewBox="0 0 513 459">
  <defs>
    <clipPath id="clip-enterOTP_mobile">
      <rect width="513" height="459"/>
    </clipPath>
  </defs>
  <g id="enterOTP_mobile" clip-path="url(#clip-enterOTP_mobile)">
    <rect width="513" height="459" fill="rgba(255,255,255,0)"/>
    <g id="Group_223" data-name="Group 223" transform="translate(-383.6 -316.644)">
      <path id="Path_151" data-name="Path 151" d="M405.66,90.57l-2.05-3.37c-17.28-28.49-48.53-45.66-81.48-43.57a86.688,86.688,0,0,0-12.61,1.73c-30,6.41-56,29.06-66.83,58.08-6.35,17.06-8.13,36.7-20.18,50.25-15.7,17.62-42.34,18.18-65.76,17.45s-50.09-.11-65.7,17.59c-9.78,11.08-12.89,26.84-12.1,41.68,2.08,39.29,29.46,74.43,64.29,91.89s75.82,19,113.92,11.35c53.39-10.76,104.16-40.32,134.68-86S430.08,139.84,405.66,90.57Z" transform="translate(396 291.186)" fill="rgba(245,245,245,0.2)"/>
      <circle id="Ellipse_15" data-name="Ellipse 15" cx="38.04" cy="38.04" r="38.04" transform="translate(476.44 351.896)" fill="rgba(255,255,255,0.3)"/>
      <g id="freepik--Table--inject-2" transform="translate(396 291.186)">
        <path id="Path_152" data-name="Path 152" d="M463.4,465.69c0,.15-98.24.26-219.39.26s-219.41-.11-219.41-.26,98.22-.26,219.41-.26S463.4,465.55,463.4,465.69Z" fill="#263238"/>
      </g>
      <g id="freepik--speech-bubble--inject-2" transform="translate(396 291.186)">
        <path id="Path_153" data-name="Path 153" d="M297.38,261H219.64l-14.85,22L190.3,261H113.94a8.84,8.84,0,0,1-8.84-8.84V100.75a8.84,8.84,0,0,1,8.84-8.85H297.38a8.84,8.84,0,0,1,8.84,8.85V252.2a8.84,8.84,0,0,1-8.84,8.8Z" fill="#fafafa"/>
        <path id="Path_154" data-name="Path 154" d="M297.38,261h.48a8.878,8.878,0,0,0,1.43-.21,8.78,8.78,0,0,0,6.61-6.54,6.65,6.65,0,0,0,.21-2.38V236.65c0-19-.05-46.38-.08-80.25V100.98a8.66,8.66,0,0,0-6-8.44,10.31,10.31,0,0,0-3.73-.42H113.05a9.269,9.269,0,0,0-1.15.21,8.51,8.51,0,0,0-6.29,6.31,17.89,17.89,0,0,0-.25,4.29V250.11a20.331,20.331,0,0,0,.16,3.68,8.61,8.61,0,0,0,4,5.71,8.36,8.36,0,0,0,3.35,1.15c1.17.12,2.42.05,3.62.07h73.92l.06.09,14.47,22h-.3l14.87-22,.05-.07h.08L277,261h0l-57.31.07.13-.07q-6.9,10.28-14.83,22.05l-.15.23-.15-.23-14.5-22,.16.09H116.52c-1.22,0-2.41.05-3.67-.07A9.1,9.1,0,0,1,105,254a20,20,0,0,1-.18-3.77V100.83a9.07,9.07,0,0,1,6.94-8.92,10.06,10.06,0,0,1,1.22-.22H296.31a10.85,10.85,0,0,1,3.87.45,9.18,9.18,0,0,1,3.34,2,9,9,0,0,1,2.21,3.14,9.51,9.51,0,0,1,.71,3.75v55.42c0,33.87-.06,61.29-.08,80.25v15.22a10.124,10.124,0,0,1-.05,1.24,8.651,8.651,0,0,1-.21,1.17,8.86,8.86,0,0,1-6.73,6.57,8.148,8.148,0,0,1-1.43.17Z" fill="#263238"/>
        <path id="Path_155" data-name="Path 155" d="M183.24,185c0,2-1.47,3.18-3.83,3.18h-1.77v2.43h-2V181.8h3.81C181.77,181.84,183.24,183.06,183.24,185Zm-2.07,0c0-1-.62-1.54-1.87-1.54h-1.66v3.06h1.66C180.55,186.56,181.17,186,181.17,185Z" fill="#263238"/>
        <path id="Path_156" data-name="Path 156" d="M190.47,186.79v3.86h-1.84v-.84a2.23,2.23,0,0,1-2.06.94c-1.58,0-2.53-.88-2.53-2.05s.85-2,2.91-2h1.56c0-.84-.5-1.33-1.56-1.33A3.25,3.25,0,0,0,185,186l-.71-1.37a5.22,5.22,0,0,1,2.92-.82C189.28,183.78,190.47,184.74,190.47,186.79Zm-2,1.72v-.69h-1.35c-.92,0-1.21.34-1.21.79s.42.82,1.11.82a1.45,1.45,0,0,0,1.49-.92Z" fill="#263238"/>
        <path id="Path_157" data-name="Path 157" d="M191.59,190l.65-1.41a4.67,4.67,0,0,0,2.36.65c.9,0,1.24-.23,1.24-.61,0-1.11-4.09,0-4.09-2.68,0-1.28,1.16-2.19,3.14-2.19a5.64,5.64,0,0,1,2.6.59l-.65,1.4a3.88,3.88,0,0,0-2-.5c-.88,0-1.26.27-1.26.62,0,1.16,4.09,0,4.09,2.71,0,1.26-1.17,2.15-3.2,2.15a5.88,5.88,0,0,1-2.88-.73Z" fill="#263238"/>
        <path id="Path_158" data-name="Path 158" d="M198.27,190l.65-1.41a4.67,4.67,0,0,0,2.35.65c.91,0,1.25-.23,1.25-.61,0-1.11-4.09,0-4.09-2.68,0-1.28,1.16-2.19,3.13-2.19a5.65,5.65,0,0,1,2.61.59l-.66,1.4a3.83,3.83,0,0,0-1.95-.5c-.88,0-1.25.27-1.25.62,0,1.16,4.08,0,4.08,2.71,0,1.26-1.17,2.15-3.19,2.15a5.85,5.85,0,0,1-2.93-.73Z" fill="#263238"/>
        <path id="Path_159" data-name="Path 159" d="M216.34,183.88l-2.45,6.77H212l-1.52-4.2-1.57,4.2H207l-2.44-6.77h1.85l1.6,4.58,1.66-4.58h1.66l1.61,4.58,1.65-4.58Z" fill="#263238"/>
        <path id="Path_160" data-name="Path 160" d="M216.57,187.27a3.72,3.72,0,1,1,3.72,3.48,3.48,3.48,0,0,1-3.72-3.48Zm5.45,0a1.74,1.74,0,1,0-1.73,1.87,1.72,1.72,0,0,0,1.71-1.87Z" fill="#263238"/>
        <path id="Path_161" data-name="Path 161" d="M229.51,183.78v1.81h-.44a1.66,1.66,0,0,0-1.8,1.88v3.2h-2V183.9h1.88v.89a2.72,2.72,0,0,1,2.36-1.01Z" fill="#263238"/>
        <path id="Path_162" data-name="Path 162" d="M237.51,181.32v9.33h-1.87v-.78a2.61,2.61,0,0,1-2.11.88,3.5,3.5,0,0,1,0-7,2.6,2.6,0,0,1,2,.82v-3.28Zm-1.92,6a1.74,1.74,0,1,0-1.73,1.87,1.72,1.72,0,0,0,1.73-1.92Z" fill="#263238"/>
        <rect id="Rectangle_164" data-name="Rectangle 164" width="23.7" height="32.79" rx="5.48" transform="translate(138.13 205.84)" fill="#ebebeb"/>
        <rect id="Rectangle_165" data-name="Rectangle 165" width="23.06" height="32.79" rx="5.48" transform="translate(194.7 205.84)" fill="#ebebeb"/>
        <rect id="Rectangle_166" data-name="Rectangle 166" width="23.06" height="32.79" rx="5.48" transform="translate(166.98 205.84)" fill="#ebebeb"/>
        <rect id="Rectangle_167" data-name="Rectangle 167" width="23.71" height="32.79" rx="5.48" transform="translate(222.29 205.84)" fill="#ebebeb"/>
        <rect id="Rectangle_168" data-name="Rectangle 168" width="23.71" height="32.79" rx="5.48" transform="translate(249.48 205.84)" fill="#ebebeb"/>
        <path id="Path_163" data-name="Path 163" d="M153,221.37l2.53,1.37-1.14,1.91-2.55-1.52v2.82h-2.18v-2.84l-2.56,1.54-1.12-1.91,2.54-1.37-2.54-1.4,1.12-1.91,2.56,1.54v-2.84h2.18v2.84l2.55-1.54,1.14,1.91Z" fill="#e3136e"/>
        <path id="Path_164" data-name="Path 164" d="M180.66,221.22l2.54,1.37-1.14,1.91L179.5,223l.05,2.82h-2.19v-2.84l-2.56,1.54-1.11-1.91,2.53-1.37-2.53-1.4,1.11-1.91,2.56,1.54v-2.84h2.19l-.05,2.84,2.56-1.54,1.14,1.91Z" fill="#e3136e"/>
        <path id="Path_165" data-name="Path 165" d="M209,221.22l2.54,1.37-1.14,1.91-2.61-1.5.05,2.82h-2.19v-2.84l-2.56,1.54L202,222.59l2.53-1.37-2.53-1.4,1.11-1.91,2.56,1.54v-2.84h2.19l-.05,2.84,2.56-1.54,1.14,1.91Z" fill="#e3136e"/>
        <path id="Path_166" data-name="Path 166" d="M236.36,221.22l2.53,1.37-1.14,1.91-2.56-1.5.05,2.82h-2.19v-2.84l-2.56,1.54-1.12-1.91,2.54-1.37-2.54-1.4,1.12-1.91,2.56,1.54v-2.84h2.19l-.05,2.84,2.56-1.54,1.14,1.91Z" fill="#e3136e"/>
        <path id="Path_167" data-name="Path 167" d="M156.11,238.84H143.85a5.73,5.73,0,0,1-5.72-5.72V211.36a5.73,5.73,0,0,1,5.72-5.72h12.26a5.72,5.72,0,0,1,5.72,5.72v21.76a5.73,5.73,0,0,1-5.72,5.72ZM143.85,206a5.32,5.32,0,0,0-5.31,5.32v21.76a5.31,5.31,0,0,0,5.31,5.31h12.26a5.32,5.32,0,0,0,5.32-5.31V211.36a5.33,5.33,0,0,0-5.32-5.32Z" fill="#263238"/>
        <path id="Path_168" data-name="Path 168" d="M184.59,238.84H172.32a5.73,5.73,0,0,1-5.72-5.72V211.36a5.73,5.73,0,0,1,5.72-5.72h12.27a5.72,5.72,0,0,1,5.71,5.72v21.76a5.72,5.72,0,0,1-5.71,5.72ZM172.32,206a5.32,5.32,0,0,0-5.31,5.32v21.76a5.31,5.31,0,0,0,5.31,5.31h12.27a5.31,5.31,0,0,0,5.31-5.31V211.36a5.32,5.32,0,0,0-5.31-5.32Z" fill="#263238"/>
        <path id="Path_169" data-name="Path 169" d="M212.28,238.84H200a5.73,5.73,0,0,1-5.72-5.72V211.36a5.73,5.73,0,0,1,5.72-5.72h12.27a5.72,5.72,0,0,1,5.71,5.72v21.76a5.72,5.72,0,0,1-5.7,5.72ZM200,206a5.32,5.32,0,0,0-5.31,5.32v21.76a5.31,5.31,0,0,0,5.31,5.31h12.27a5.31,5.31,0,0,0,5.31-5.31V211.36a5.32,5.32,0,0,0-5.31-5.32Z" fill="#263238"/>
        <path id="Path_170" data-name="Path 170" d="M240.28,238.84H228a5.73,5.73,0,0,1-5.72-5.72V211.36a5.72,5.72,0,0,1,5.72-5.72h12.26a5.73,5.73,0,0,1,5.72,5.72v21.76a5.73,5.73,0,0,1-5.7,5.72ZM228,206a5.33,5.33,0,0,0-5.32,5.32v21.76a5.32,5.32,0,0,0,5.32,5.31h12.26a5.31,5.31,0,0,0,5.31-5.31V211.36a5.32,5.32,0,0,0-5.31-5.32Z" fill="#263238"/>
        <path id="Path_171" data-name="Path 171" d="M267.47,238.84H255.21a5.73,5.73,0,0,1-5.72-5.72V211.36a5.72,5.72,0,0,1,5.72-5.72h12.26a5.73,5.73,0,0,1,5.72,5.72v21.76a5.73,5.73,0,0,1-5.72,5.72ZM255.21,206a5.33,5.33,0,0,0-5.32,5.32v21.76a5.32,5.32,0,0,0,5.32,5.31h12.26a5.31,5.31,0,0,0,5.31-5.31V211.36a5.32,5.32,0,0,0-5.31-5.32Z" fill="#263238"/>
        <path id="Path_172" data-name="Path 172" d="M267.91,230.13a40.808,40.808,0,0,1-6.57.26,40.81,40.81,0,0,1-6.57-.26,42.241,42.241,0,0,1,6.57-.26A42.242,42.242,0,0,1,267.91,230.13Z" fill="#e3136e"/>
        <circle id="Ellipse_16" data-name="Ellipse 16" cx="26.49" cy="26.49" r="26.49" transform="translate(180.25 118.86)" fill="#e3136e"/>
        <path id="Path_173" data-name="Path 173" d="M202.08,140.53h-.44v-2.47a5.17,5.17,0,1,1,10.33,0v2h-.44v-2a4.73,4.73,0,1,0-9.45,0Z" fill="#fff"/>
        <path id="Path_174" data-name="Path 174" d="M213.31,157.8H200.18a2.17,2.17,0,0,1-2.18-2.18V142.49a2.18,2.18,0,0,1,2.18-2.18h13.13a2.19,2.19,0,0,1,2.18,2.18v13.13A2.18,2.18,0,0,1,213.31,157.8Zm-13.13-17.05a1.74,1.74,0,0,0-1.74,1.74v13.13a1.74,1.74,0,0,0,1.74,1.74h13.13a1.74,1.74,0,0,0,1.74-1.74V142.49a1.74,1.74,0,0,0-1.74-1.74Z" fill="#fff"/>
        <path id="Path_175" data-name="Path 175" d="M206.81,149.49a2.07,2.07,0,1,1,2.06-2.06,2.07,2.07,0,0,1-2.06,2.06Zm0-3.68a1.61,1.61,0,1,0,1.148.472,1.62,1.62,0,0,0-1.148-.472Z" fill="#fff"/>
        <rect id="Rectangle_169" data-name="Rectangle 169" width="0.44" height="3.72" transform="translate(206.52 149.17)" fill="#fff"/>
        <circle id="Ellipse_17" data-name="Ellipse 17" cx="8.18" cy="8.18" r="8.18" transform="translate(278.695 113.152) rotate(-77.59)" fill="#e0e0e0"/>
        <path id="Path_176" data-name="Path 176" d="M285.81,109.83a.25.25,0,0,1-.18-.08.24.24,0,0,1,0-.35l5.3-5.3a.24.24,0,0,1,.35,0,.25.25,0,0,1,0,.36l-5.3,5.29A.25.25,0,0,1,285.81,109.83Z" fill="#fff"/>
        <path id="Path_177" data-name="Path 177" d="M291.1,109.83a.25.25,0,0,1-.17-.08l-5.3-5.29a.25.25,0,0,1,0-.36.24.24,0,0,1,.35,0l5.3,5.3a.24.24,0,0,1,0,.35A.25.25,0,0,1,291.1,109.83Z" fill="#fff"/>
      </g>
      <g id="freepik--Plant--inject-2" transform="translate(396 291.186)">
        <path id="Path_178" data-name="Path 178" d="M78.06,415.55s-26.42-30.41-36.39-60.82-5.24-26.92-5.24-26.92,13.46,29.54,23.68,43.81,28.42,35.2,28.42,35.2Z" fill="#455a64"/>
        <path id="Path_179" data-name="Path 179" d="M83.32,332.54a1.54,1.54,0,0,0-2.86,1c1.61,10.69,5.09,35.75,5,52-.17,21.12,0,29.28,0,29.28h11s-2-43.66-4.44-57C90.24,348.51,86.54,338.15,83.32,332.54Z" fill="#455a64"/>
        <path id="Path_180" data-name="Path 180" d="M89.32,411.26a116.45,116.45,0,0,0,9.05-32.83c.9-7.77-.71-18.28-3.11-32.3a86.229,86.229,0,0,1-1.39-15.54,2.62,2.62,0,0,1,4.92-1.23c1.33,2.37,5.17,10.46,6.15,15.53,2.66,13.84,5.67,20.76,3.37,33.9s-10.83,33.36-10.83,33.36Z" fill="#455a64"/>
        <path id="Path_181" data-name="Path 181" d="M99.22,412.15s29-62.34,31-71.59,8.85-30.56,9.65-29.35,2,12.46-3.21,25.33-27.55,77.51-27.55,77.51H99.22" fill="#455a64"/>
        <path id="Path_182" data-name="Path 182" d="M86.14,409.36a5.17,5.17,0,0,1-.81-.56c-.52-.39-1.3-.94-2.25-1.71-1.93-1.52-4.64-3.83-7.8-6.88a131,131,0,0,1-21-27,177.19,177.19,0,0,1-14.37-31.12c-1.46-4.14-2.52-7.53-3.21-9.88-.36-1.18-.6-2.1-.77-2.72a5.84,5.84,0,0,1-.23-1,5.722,5.722,0,0,1,.35.92c.22.67.51,1.57.88,2.69.76,2.33,1.89,5.69,3.39,9.81a189.059,189.059,0,0,0,14.49,30.95,137,137,0,0,0,20.82,27c3.11,3.09,5.76,5.44,7.64,7,.93.8,1.69,1.38,2.17,1.8a6.1,6.1,0,0,1,.7.7Z" fill="#263238"/>
        <path id="Path_183" data-name="Path 183" d="M89.32,379.45a8.771,8.771,0,0,1-.26-1.83c-.14-1.29-.32-3-.54-5-.46-4.22-1.18-10-2.2-16.43s-2.17-12.14-3.06-16.28c-.43-2-.78-3.65-1.06-4.92a10.161,10.161,0,0,1-.32-1.82,10.721,10.721,0,0,1,.56,1.76c.32,1.15.75,2.81,1.25,4.88,1,4.13,2.21,9.88,3.24,16.29s1.68,12.24,2,16.48c.17,2.11.29,3.83.34,5a11.26,11.26,0,0,1,.05,1.87Z" fill="#263238"/>
        <path id="Path_184" data-name="Path 184" d="M96.11,328.87a3.88,3.88,0,0,1,.34.79l.87,2.32c.39,1,.83,2.24,1.25,3.71s1,3.11,1.41,5l.72,2.93c.24,1,.41,2.1.63,3.21.48,2.21.77,4.61,1.12,7.13a116.3,116.3,0,0,1,.7,16.52,116.191,116.191,0,0,1-1.88,16.44c-.53,2.48-1,4.86-1.62,7-.31,1.09-.56,2.16-.87,3.16L97.85,400c-.55,1.84-1.23,3.45-1.76,4.88a31.9,31.9,0,0,1-1.51,3.61l-1,2.25a3.942,3.942,0,0,1-.4.76,4.548,4.548,0,0,1,.28-.81c.24-.58.55-1.34.93-2.29s.91-2.2,1.4-3.65,1.15-3,1.68-4.89c.28-.91.57-1.87.88-2.87s.54-2.06.83-3.15c.6-2.17,1-4.53,1.56-7a121.7,121.7,0,0,0,1.82-16.35,121.6,121.6,0,0,0-.64-16.43c-.34-2.51-.61-4.9-1.06-7.11-.21-1.1-.37-2.18-.6-3.2s-.46-2-.68-2.93c-.39-1.87-.92-3.52-1.31-5s-.8-2.72-1.15-3.74l-.75-2.35a4.541,4.541,0,0,1-.26-.86Z" fill="#263238"/>
        <path id="Path_185" data-name="Path 185" d="M139.56,312.46a1.19,1.19,0,0,1,0,.28,6.95,6.95,0,0,1-.13.81c-.13.71-.29,1.76-.57,3.1a112.661,112.661,0,0,1-3,11.22c-1.5,4.68-3.42,10.18-5.77,16.21s-5.06,12.61-7.64,19.61-4.63,13.81-6.52,20-3.66,11.75-5.38,16.34A103.693,103.693,0,0,1,106,410.7c-.59,1.23-1.13,2.15-1.47,2.79l-.41.71c-.09.16-.14.24-.15.23a.84.84,0,0,1,.1-.26l.35-.74c.31-.65.81-1.59,1.37-2.84,1.16-2.47,2.74-6.1,4.38-10.71s3.4-10.15,5.24-16.35,3.87-13,6.49-20,5.32-13.59,7.69-19.61,4.39-11.47,5.89-16.13,2.49-8.48,3.12-11.14c.32-1.33.52-2.37.69-3.08.07-.32.14-.58.19-.79A.91.91,0,0,1,139.56,312.46Z" fill="#263238"/>
        <path id="Path_186" data-name="Path 186" d="M50.11,298.69A2.49,2.49,0,0,0,46,301.23a71.149,71.149,0,0,0,3.64,9.38c4,8.47,15.7,38.88,21.19,55.58S84,414.05,84,414.05l11.71-1.9S85,361,74.57,342.51C66.16,327.69,57.74,306.27,50.11,298.69Z" fill="#455a64"/>
        <path id="Path_187" data-name="Path 187" d="M74,376.64a6.552,6.552,0,0,1,.61,1.4c.34.92.82,2.26,1.35,3.93,1.08,3.34,2.4,8,3.72,13.19s2.44,9.91,3.21,13.33c.35,1.61.64,3,.88,4.05a7.73,7.73,0,0,1,.24,1.51,7.5,7.5,0,0,1-.48-1.45c-.28-1.07-.64-2.41-1.07-4-.9-3.52-2.07-8.15-3.38-13.27s-2.57-9.86-3.54-13.22c-.46-1.59-.85-2.92-1.16-4A7.63,7.63,0,0,1,74,376.64Z" fill="#263238"/>
        <path id="Path_188" data-name="Path 188" d="M89.92,413.1a1.241,1.241,0,0,1-.06-.31,6.931,6.931,0,0,0-.14-.92c-.12-.81-.23-2-.48-3.55-.43-3.08-1.19-7.51-2.45-12.92a186.442,186.442,0,0,0-5.48-18.7c-2.41-6.94-5.42-14.44-8.83-22.2-6.89-15.49-13.77-29.24-18.3-39.4-2.28-5.08-4-9.21-5.22-12.1-.59-1.44-1-2.57-1.31-3.33-.14-.35-.24-.64-.33-.87a1.13,1.13,0,0,1-.09-.31,1.349,1.349,0,0,1,.15.28l.38.85c.35.8.82,1.9,1.43,3.29,1.23,2.85,3.06,7,5.39,12C59.2,325,66.15,338.73,73.05,354.25c3.41,7.77,6.42,15.29,8.8,22.26a177,177,0,0,1,5.37,18.8,130.206,130.206,0,0,1,2.26,13c.21,1.54.28,2.75.37,3.56l.07.93a1.3,1.3,0,0,1,0,.3Z" fill="#263238"/>
        <path id="Path_189" data-name="Path 189" d="M95.75,412.15a12.851,12.851,0,0,1-.4-2c-.23-1.37-.54-3.19-.91-5.38-.8-4.54-2-10.79-3.81-17.59S86.9,374.35,85.38,370c-.74-2.1-1.36-3.83-1.83-5.14a12.408,12.408,0,0,1-.62-1.91,12,12,0,0,1,.85,1.82c.5,1.19,1.21,2.92,2,5.08a170.011,170.011,0,0,1,5.44,17.21,178.4,178.4,0,0,1,3.65,17.67c.33,2.28.58,4.13.71,5.42a13.34,13.34,0,0,1,.17,2Z" fill="#263238"/>
        <rect id="Rectangle_170" data-name="Rectangle 170" width="45.71" height="55.69" transform="translate(74.08 410.47)" fill="#e3136e"/>
        <g id="Group_217" data-name="Group 217" opacity="0.3">
          <rect id="Rectangle_171" data-name="Rectangle 171" width="45.71" height="55.69" transform="translate(74.08 410.47)"/>
        </g>
        <rect id="Rectangle_172" data-name="Rectangle 172" width="40.55" height="55.69" transform="translate(64.65 410.47)" fill="#e3136e"/>
      </g>
      <g id="freepik--Character--inject-2" transform="translate(396 291.186)">
        <path id="Path_190" data-name="Path 190" d="M386.91,286.57l-24.03-3.48-48.07,7.11-13.49,4.77,2.39,29.5,46.22,8.51,31.18-9.24,11.79-17.35Z" fill="#ffbe9d"/>
        <path id="Path_191" data-name="Path 191" d="M402.06,289.39l-20.12-4.74s-14.21,44-49.3,42.07c-28.6-1.55-28.93-33.47-28.93-33.47l-20.61,6.6s-7.89,52.87.84,90.33c2,8.75,4.77,20.54,4.77,20.54l-2.79,54.73,152.44.24-36.3-176.3Z" fill="#e3136e"/>
        <g id="Group_218" data-name="Group 218" opacity="0.3">
          <path id="Path_192" data-name="Path 192" d="M342.3,454.83c7.42-.19,14.26.44,21.68.26,8.9-.22,17.87-.44,26.66,1,6.58,1.09,13,3.09,19.58,4.13,9,1.42,18.59.92,26.59-3.41l-1.29-7.47L405.14,442Z"/>
        </g>
        <path id="Path_193" data-name="Path 193" d="M265.89,312.17c7-9,18.56-12.75,18.56-12.75l7.8,67.89-14.77,98.86-48.38-.23S255.78,325.22,265.89,312.17Z" fill="#e3136e"/>
        <path id="Path_194" data-name="Path 194" d="M399.71,288.89s32.56,2.61,44.24,56c5.28,24.13,12,52.4,13.89,71.41,1.39,13.78-6.1,35.36-19.84,37.13l-17.28,2.32a28.549,28.549,0,0,1-10.18-.37c-10.91-2.51-12-10-14-18l-5-15.92c-2.76-15.14,11.35-18,19.14-17.79l-5.81-69.11Z" fill="#e3136e"/>
        <path id="Path_195" data-name="Path 195" d="M280.42,337.17a3.538,3.538,0,0,0-.15.74c-.08.54-.19,1.26-.33,2.15-.06.47-.14,1-.22,1.56s-.12,1.19-.19,1.86c-.14,1.33-.3,2.85-.37,4.54a114.8,114.8,0,0,0-.08,11.87,144.905,144.905,0,0,0,1.44,14.45c.75,5.11,1.69,9.93,2.65,14.29s1.89,8.27,2.71,11.55,1.51,5.91,2,7.73c.24.87.43,1.57.58,2.09a3.53,3.53,0,0,0,.24.72,3.719,3.719,0,0,0-.14-.74c-.12-.54-.28-1.24-.48-2.12-.45-1.89-1.08-4.53-1.86-7.77s-1.68-7.2-2.59-11.56-1.86-9.17-2.6-14.26-1.26-10-1.48-14.41a103.114,103.114,0,0,1,0-11.82c.05-1.69.18-3.2.29-4.54q.07-1,.15-1.86c.06-.56.12-1.08.17-1.56.1-.89.18-1.61.23-2.16a3.835,3.835,0,0,0,.03-.75Z" fill="#263238"/>
        <path id="Path_196" data-name="Path 196" d="M436.23,422.37A5.86,5.86,0,0,0,436,421a21.817,21.817,0,0,0-1.26-3.51,23.93,23.93,0,0,0-19.11-13.91,21,21,0,0,0-3.73-.12,6.1,6.1,0,0,0-1.36.17,44.644,44.644,0,0,1,5,.31,24.69,24.69,0,0,1,18.83,13.7,48.5,48.5,0,0,1,1.86,4.73Z" fill="#263238"/>
        <path id="Path_197" data-name="Path 197" d="M428.71,395.79a2.51,2.51,0,0,0-.79-.07,16.59,16.59,0,0,0-2.15.1,24.67,24.67,0,0,0-6.87,1.72,25.25,25.25,0,0,0-6.1,3.61,17.371,17.371,0,0,0-1.59,1.44c-.35.37-.53.58-.51.61s.88-.7,2.33-1.76a28.711,28.711,0,0,1,12.79-5.26C427.59,395.92,428.71,395.88,428.71,395.79Z" fill="#263238"/>
        <path id="Path_198" data-name="Path 198" d="M395,326.72a7.388,7.388,0,0,0,.08-1.43c0-.92.06-2.24.17-3.87A62.139,62.139,0,0,1,402.11,297c.75-1.45,1.4-2.61,1.87-3.39a7.378,7.378,0,0,0,.67-1.26,7.54,7.54,0,0,0-.85,1.15,38.812,38.812,0,0,0-2,3.33,56.32,56.32,0,0,0-6.9,24.58c-.06,1.64-.06,3,0,3.89A6.9,6.9,0,0,0,395,326.72Z" fill="#263238"/>
        <path id="Path_199" data-name="Path 199" d="M332.64,375.15a2.169,2.169,0,0,0,.14.56c.12.36.27.91.54,1.57a32.581,32.581,0,0,0,2.71,5.49,35.29,35.29,0,0,0,34.57,16.6,33.692,33.692,0,0,0,6-1.31c.69-.21,1.21-.44,1.56-.57a3,3,0,0,0,.53-.23c0-.05-.77.21-2.15.6a36.245,36.245,0,0,1-40.21-15.28,37.913,37.913,0,0,1-2.84-5.37A13.517,13.517,0,0,0,332.64,375.15Z" fill="#263238"/>
        <path id="Path_200" data-name="Path 200" d="M401.26,450.2c.05-.05.56.68,1.78,1.68a16.35,16.35,0,0,0,6,2.84,31.531,31.531,0,0,0,9.8.87c3.72-.27,7.83-.71,12.09-1.34a62,62,0,0,0,11.8-2.72,15,15,0,0,0,4.33-2.89,22.486,22.486,0,0,0,3-3.45,32.61,32.61,0,0,0,3.33-5.77c.31-.73.55-1.29.7-1.68a2.278,2.278,0,0,1,.26-.58,4.109,4.109,0,0,1-.16.61c-.12.41-.33,1-.62,1.73a29.221,29.221,0,0,1-3.21,5.91,22.34,22.34,0,0,1-3,3.54,15.12,15.12,0,0,1-4.44,3,58.809,58.809,0,0,1-11.9,2.79c-4.29.64-8.39,1.06-12.14,1.31a31.5,31.5,0,0,1-9.93-1,16,16,0,0,1-6-3,9.582,9.582,0,0,1-1.27-1.33A2.621,2.621,0,0,1,401.26,450.2Z" fill="#263238"/>
        <path id="Path_201" data-name="Path 201" d="M395.89,343.72c.13,0,3.57,13.29,7.66,29.77s7.3,29.86,7.16,29.9-3.57-13.3-7.66-29.78S395.75,343.75,395.89,343.72Z" fill="#263238"/>
        <path id="Path_202" data-name="Path 202" d="M391.74,419a4.079,4.079,0,0,1-.17-1.1,19.593,19.593,0,0,1-.07-3,8.89,8.89,0,0,1,1.47-4.27,12.7,12.7,0,0,1,1.67-2.1,11.769,11.769,0,0,1,2.31-1.72,29.279,29.279,0,0,1,9.48-3.06,26.632,26.632,0,0,1,3-.26,3.781,3.781,0,0,1,1.11,0c0,.08-1.57.14-4.06.59a31.58,31.58,0,0,0-9.28,3.14,11.6,11.6,0,0,0-2.22,1.64,12.558,12.558,0,0,0-1.62,2,8.61,8.61,0,0,0-1.5,4,25.568,25.568,0,0,0-.09,3,4.931,4.931,0,0,1-.03,1.14Z" fill="#263238"/>
        <g id="Group_219" data-name="Group 219" opacity="0.3">
          <path id="Path_203" data-name="Path 203" d="M281.92,382c-8.31-14.07-8.49-32.35-1.24-47a131.76,131.76,0,0,0,1.48,46.94"/>
        </g>
        <path id="Path_204" data-name="Path 204" d="M325.89,417.08h.06Z" fill="#ffbe9d"/>
        <path id="Path_205" data-name="Path 205" d="M326.25,417.25l.13.06Z" fill="#ffbe9d"/>
        <path id="Path_206" data-name="Path 206" d="M326,417.11l.3.14Z" fill="#ffbe9d"/>
        <path id="Path_207" data-name="Path 207" d="M325.76,417l.13.06Z" fill="#ffbe9d"/>
        <path id="Path_208" data-name="Path 208" d="M295.17,445.11c2.62-4.94,23.05-18,23.05-18l-5.53-1.28-6.11,2.58a15,15,0,0,1-2.63,5.72c-2.24,3.2-6.05-.11-6.05-.11l2.58-12.37,12.08-7.27s11.36,1.74,13.2,2.62l4.84,4.43c2.13,1.67,8.27,8.24,9.95,8.44S395,418.22,395,418.22h0c7.23,5.73,11,17.1,12.18,25.31,0,0,1.29,4-.11,6.22l-64.73,5.08-13.72,3.79a97.137,97.137,0,0,1-11.27,3.87c-4.56,1-7.63-.51-7.76-3s3.42-2.8,3.42-2.8a69,69,0,0,0,8.82-3.88,15.47,15.47,0,0,0,5-5.46l-4.89.58s-10.4,7.22-14.31,9.34-4.68-1.77-5-3,11.68-12.91,11.68-12.91-11.41,7-13.46,8.8-5.09,2.31-5.74,1.12S292.56,450.05,295.17,445.11Z" fill="#ffbe9d"/>
        <path id="Path_209" data-name="Path 209" d="M326.38,417.31l.11.06Z" fill="#ffbe9d"/>
        <path id="Path_210" data-name="Path 210" d="M326.56,417.4Z" fill="#ffbe9d"/>
        <path id="Path_211" data-name="Path 211" d="M326.49,417.37h.07Z" fill="#ffbe9d"/>
        <path id="Path_212" data-name="Path 212" d="M351.43,446.25a2.811,2.811,0,0,0,.06-.8,4.684,4.684,0,0,0-.06-.94,7.071,7.071,0,0,0-.23-1.23,17.561,17.561,0,0,0-3.31-6.39,37,37,0,0,0-5-5.18,14.37,14.37,0,0,0-2.35-1.82,25.214,25.214,0,0,0,2.12,2.07,47.644,47.644,0,0,1,4.84,5.23,18.811,18.811,0,0,1,3.36,6.18C351.38,445.11,351.33,446.26,351.43,446.25Z" fill="#eb996e"/>
        <path id="Path_213" data-name="Path 213" d="M318.69,426.74a7.5,7.5,0,0,0,6.45-2.17c-.08-.11-1.33.82-3.12,1.4S318.69,426.6,318.69,426.74Z" fill="#eb996e"/>
        <path id="Path_214" data-name="Path 214" d="M315.29,440.28a64.321,64.321,0,0,0,10.22-4.2,31.233,31.233,0,0,0-5.2,1.88,32.6,32.6,0,0,0-5.02,2.32Z" fill="#eb996e"/>
        <path id="Path_215" data-name="Path 215" d="M326.25,447.2a12,12,0,0,0,2.66-.95,11.762,11.762,0,0,0,2.6-1.11,10.52,10.52,0,0,0-5.26,2.06Z" fill="#eb996e"/>
        <path id="Path_216" data-name="Path 216" d="M317,441.18a11.321,11.321,0,0,1,2,1.76,11.089,11.089,0,0,1,1.16,2.42c.06,0,.12-.33,0-.85a4.33,4.33,0,0,0-.82-1.86,4.28,4.28,0,0,0-1.57-1.28C317.32,441.15,317,441.13,317,441.18Z" fill="#eb996e"/>
        <path id="Path_217" data-name="Path 217" d="M312.18,433.63c-.07.12.83.61,1.42,1.64a13,13,0,0,1,.73,2.05A2.43,2.43,0,0,0,314,435C313.33,433.84,312.2,433.5,312.18,433.63Z" fill="#eb996e"/>
        <path id="Path_218" data-name="Path 218" d="M313.8,420.13c.06,0,.24-.2.39-.65a3.55,3.55,0,0,0,0-1.8,3.481,3.481,0,0,0-.86-1.58c-.33-.33-.6-.45-.64-.4a9.437,9.437,0,0,1,1,2.1,8.621,8.621,0,0,1,.11,2.33Z" fill="#eb996e"/>
        <path id="Path_219" data-name="Path 219" d="M407.6,451.6a9.294,9.294,0,0,1-.08-1.49,16.224,16.224,0,0,0-.07-1.74c-.07-.68-.06-1.45-.16-2.29a51.311,51.311,0,0,0-2.83-13,46.589,46.589,0,0,0-3.06-6.64c-.6-1-1.12-1.89-1.72-2.7-.28-.41-.56-.8-.83-1.18a8.809,8.809,0,0,0-.83-1c-2.15-2.65-3.8-4-3.72-4.08a6.83,6.83,0,0,1,1.16.93,14.813,14.813,0,0,1,1.28,1.21c.47.49,1,1,1.57,1.7.27.34.56.68.86,1a13.406,13.406,0,0,1,.87,1.18c.62.81,1.16,1.75,1.77,2.71a43.436,43.436,0,0,1,3.14,6.7,47.621,47.621,0,0,1,2.71,13.12c.07.85.06,1.63.08,2.31s0,1.27,0,1.75A7.461,7.461,0,0,1,407.6,451.6Z" fill="#263238"/>
        <g id="Group_220" data-name="Group 220" opacity="0.3">
          <path id="Path_220" data-name="Path 220" d="M429.81,405.35a32.52,32.52,0,0,0-19.18-1.75h0a26.53,26.53,0,0,1,25.89,16.74c.46,1.24,1.38,2.71,2.7,2.52s1.68-1.72,1.68-2.95C440.91,413.44,435.78,407.84,429.81,405.35Z"/>
        </g>
        <path id="Path_221" data-name="Path 221" d="M280,332.59a3.142,3.142,0,0,1-.86-.29c-.55-.21-1.32-.56-2.26-1a47.341,47.341,0,0,1-7-4.29,48,48,0,0,1-6.14-5.4c-.72-.76-1.29-1.4-1.65-1.85s-.56-.72-.53-.75.94.9,2.44,2.34a63.532,63.532,0,0,0,6.19,5.25,62.436,62.436,0,0,0,6.83,4.37C278.9,332,280.06,332.52,280,332.59Z" fill="#fff"/>
        <path id="Path_222" data-name="Path 222" d="M395.47,336.36a1.119,1.119,0,0,1-.25.17l-.77.46c-.67.41-1.69,1-3,1.66a84,84,0,0,1-11.65,4.91,112.148,112.148,0,0,1-18.23,4.38,176.919,176.919,0,0,1-22.88,1.9c-8.15.19-15.91,0-23-.12a153.231,153.231,0,0,1-18.7-1.41,72.559,72.559,0,0,1-12.32-2.86c-1.41-.48-2.5-.88-3.22-1.19l-.82-.35a1.469,1.469,0,0,1-.28-.13l.3.08.84.3c.73.28,1.83.65,3.25,1.1a79.119,79.119,0,0,0,12.3,2.69,160.993,160.993,0,0,0,18.66,1.29c7,.13,14.8.27,22.93.08a179.7,179.7,0,0,0,22.82-1.86,114.074,114.074,0,0,0,18.19-4.25,90.521,90.521,0,0,0,11.68-4.74c1.33-.66,2.36-1.19,3-1.57l.79-.41A1.893,1.893,0,0,1,395.47,336.36Z" fill="#fff"/>
        <path id="Path_223" data-name="Path 223" d="M280.38,372a5.52,5.52,0,0,1-1.24-.26l-3.33-.91c-2.8-.79-6.66-1.92-10.92-3.19s-8.1-2.46-10.88-3.34l-3.28-1.06a6.888,6.888,0,0,1-1.18-.46,5.517,5.517,0,0,1,1.24.26l3.33.91c2.8.79,6.66,1.92,10.92,3.19s8.1,2.45,10.88,3.33l3.28,1.07a6,6,0,0,1,1.18.46Z" fill="#fff"/>
        <path id="Path_224" data-name="Path 224" d="M283.29,427.27c0,.13-10-2.73-22.3-6.4s-22.19-6.76-22.15-6.9,10,2.72,22.3,6.4S283.33,427.13,283.29,427.27Z" fill="#fff"/>
        <path id="Path_225" data-name="Path 225" d="M427.82,307.69a6.918,6.918,0,0,1-1.1.87c-.72.53-1.8,1.27-3.15,2.15A107.32,107.32,0,0,1,401,321.8c-1.52.53-2.76.93-3.63,1.18a6.742,6.742,0,0,1-1.36.34,7.73,7.73,0,0,1,1.3-.53l3.57-1.33c3-1.15,7.11-2.85,11.51-5s8.26-4.37,11-6.05l3.24-2A7.089,7.089,0,0,1,427.82,307.69Z" fill="#fff"/>
        <path id="Path_226" data-name="Path 226" d="M447.74,364.51a12.371,12.371,0,0,1-1.62.77c-1.05.47-2.61,1.09-4.55,1.8A105.67,105.67,0,0,1,410,373.36c-2.07.09-3.74.11-4.9.07a13.427,13.427,0,0,1-1.79-.08,10.761,10.761,0,0,1,1.79-.12c1.15,0,2.82-.1,4.88-.24a122.627,122.627,0,0,0,15.95-2.07,124.434,124.434,0,0,0,15.53-4.18c1.95-.67,3.52-1.24,4.6-1.65a10.4,10.4,0,0,1,1.68-.58Z" fill="#fff"/>
        <path id="Path_227" data-name="Path 227" d="M419,455.39a2.158,2.158,0,0,1,.05-.56c.06-.41.15-.93.25-1.57s.25-1.52.35-2.5.27-2.08.31-3.32c0-.61.08-1.26.12-1.93s0-1.38,0-2.1c0-1.45-.06-3-.14-4.63a67.9,67.9,0,0,0-1.61-10.48A68.678,68.678,0,0,0,415,418.23c-.68-1.48-1.29-2.91-2-4.18-.34-.64-.65-1.27-1-1.86l-1-1.66c-.61-1.08-1.27-2-1.8-2.81a24.975,24.975,0,0,0-1.45-2.06l-.94-1.29a2.081,2.081,0,0,1-.3-.47,3,3,0,0,1,.38.4l1,1.24a23.989,23.989,0,0,1,1.53,2c.56.81,1.24,1.71,1.87,2.78l1,1.66c.35.58.67,1.22,1,1.86a43.039,43.039,0,0,1,2,4.19,60.38,60.38,0,0,1,5,20.71c.06,1.64.15,3.2.09,4.66,0,.73,0,1.44-.06,2.12s-.1,1.32-.15,1.94c-.07,1.25-.27,2.35-.4,3.33s-.28,1.82-.43,2.49-.26,1.15-.35,1.57a2.488,2.488,0,0,1,.01.54Z" fill="#fff"/>
        <path id="Path_228" data-name="Path 228" d="M457.58,424.74c-.05,0-.08-.82-.31-2.26a19.429,19.429,0,0,0-2-5.82,24.52,24.52,0,0,0-5.65-7.12,29.34,29.34,0,0,0-9.61-5.62A37.451,37.451,0,0,0,429,402a69.775,69.775,0,0,0-9.18.35c-2.61.24-4.72.51-6.18.67l-1.68.18a2.19,2.19,0,0,1-.59,0,2.261,2.261,0,0,1,.57-.13l1.67-.28c1.45-.23,3.56-.54,6.17-.84a67.147,67.147,0,0,1,9.24-.46,37.529,37.529,0,0,1,11.16,1.93,29.58,29.58,0,0,1,9.76,5.76,24.31,24.31,0,0,1,5.66,7.31,18.39,18.39,0,0,1,1.83,6,12.488,12.488,0,0,1,.12,1.7A2.458,2.458,0,0,1,457.58,424.74Z" fill="#fff"/>
        <path id="Path_229" data-name="Path 229" d="M350,395.79a2.352,2.352,0,0,1-.57.1l-1.63.17-6,.5c-5.07.39-12.08.87-19.82,1.27s-14.77.65-19.86.71h-7.63a2.089,2.089,0,0,1-.57-.06,2.487,2.487,0,0,1,.57-.05h1.63l6-.15c5.07-.15,12.09-.45,19.83-.86l19.82-1.12,6-.34,1.64-.07a2.281,2.281,0,0,1,.59-.1Z" fill="#fff"/>
        <g id="Group_221" data-name="Group 221" opacity="0.3">
          <path id="Path_230" data-name="Path 230" d="M355.81,397.87c6.3,1.85,15,2.3,21.17,0-4.8,6.83-14.07,9.3-22.12,7.08s-15.46-10.27-16.08-18.6C342.68,391.6,349.51,396,355.81,397.87Z"/>
        </g>
        <path id="Path_231" data-name="Path 231" d="M406.9,391.28a3.15,3.15,0,0,1-.51.14l-1.45.31c-1.27.26-3.1.6-5.38,1-4.55.8-10.86,1.78-17.85,2.64s-13.36,1.42-18,1.74c-2.3.16-4.17.27-5.46.32l-1.48.05a1.61,1.61,0,0,1-.52,0,2.682,2.682,0,0,1,.51-.08l1.48-.15,5.44-.49c4.6-.41,10.94-1,17.94-1.89s13.29-1.78,17.85-2.48l5.4-.84,1.48-.21a1.58,1.58,0,0,1,.55-.06Z" fill="#fff"/>
        <g id="Group_222" data-name="Group 222" opacity="0.3">
          <path id="Path_232" data-name="Path 232" d="M396.42,346.76c-1.58,18.1,3.35,36.06,8.24,53.56a7.44,7.44,0,0,0,1.34,3,2.6,2.6,0,0,0,3,.83c1.53-.78,1.32-3,.89-4.64l-13.59-52"/>
        </g>
        <path id="Path_233" data-name="Path 233" d="M143.22,364.79l20.55,100.9h178.4a3.56,3.56,0,0,0,3.56-3.56h0a3.56,3.56,0,0,0-3.56-3.56H306.25L287.2,364.73a3.9,3.9,0,0,0-3.78-3.12l-136.34-1.49a3.89,3.89,0,0,0-3.86,4.67Z" fill="#e0e0e0"/>
        <path id="Path_234" data-name="Path 234" d="M143.22,364.79a2.4,2.4,0,0,1-.06-.3,3.69,3.69,0,0,1,0-.92,4,4,0,0,1,1.89-2.95,3.87,3.87,0,0,1,1.18-.46,5.86,5.86,0,0,1,1.4-.09h3.21l8,.07,51.55.49,35.94.36,20.14.21,10.56.11,5.39.05h1.38a3.92,3.92,0,0,1,1.38.4,4.08,4.08,0,0,1,2,2.05,6.34,6.34,0,0,1,.37,1.37l.28,1.36c.18.9.37,1.81.55,2.72.38,1.83.75,3.67,1.13,5.51L291.79,386q2.31,11.35,4.72,23.23c3.22,15.82,6.57,32.27,10,49.23l-.24-.2h35.32a6.637,6.637,0,0,1,1.39.08A3.86,3.86,0,0,1,345.3,460a3.82,3.82,0,0,1-1.32,5.52,3.76,3.76,0,0,1-1.68.45H163.62v-.15c-6.29-31-11.4-56.24-14.94-73.72-1.75-8.74-3.12-15.54-4.05-20.16-.46-2.31-.81-4.07-1-5.26s-.33-1.8-.33-1.8.14.61.39,1.79l1.1,5.24c.95,4.62,2.35,11.42,4.15,20.14l15.1,73.7-.19-.16H342.37a3.42,3.42,0,0,0,1.46-.39,3.33,3.33,0,0,0,1.14-4.81,3.26,3.26,0,0,0-2-1.35,6.721,6.721,0,0,0-1.29-.08H306.05v-.19q-5.16-25.5-10-49.24-2.41-11.86-4.71-23.23L289,374.92c-.37-1.85-.74-3.68-1.11-5.51-.19-.91-.37-1.82-.56-2.73l-.27-1.35a5.68,5.68,0,0,0-.35-1.29A3.65,3.65,0,0,0,285,362.2a3.721,3.721,0,0,0-1.23-.36h-1.34l-5.4-.06-10.56-.12-20.13-.24L210.4,361l-51.55-.63-8-.11-3.21-.05a6.2,6.2,0,0,0-1.38.07,4.06,4.06,0,0,0-1.15.45,3.89,3.89,0,0,0-1.89,2.88A4.651,4.651,0,0,0,143.22,364.79Z" fill="#263238"/>
        <path id="Path_235" data-name="Path 235" d="M225.42,411a5.89,5.89,0,1,1-5.89-5.89,5.89,5.89,0,0,1,5.89,5.89Z" fill="#fff"/>
        <path id="Path_236" data-name="Path 236" d="M143.38,365.61h9.36l25.51.12,84.15.59,12.17.1h3a7.3,7.3,0,0,1,1.53.09,4.121,4.121,0,0,1,1.44.58,4.19,4.19,0,0,1,1.81,2.46c.23,1,.39,1.92.59,2.88,1.51,7.6,3,14.93,4.35,21.91,2.76,14,5.25,26.55,7.33,37.12l4.91,25c.56,2.95,1,5.24,1.31,6.81.14.77.25,1.36.33,1.78a5.272,5.272,0,0,1,.09.6s-.06-.2-.14-.59-.22-1-.38-1.77c-.32-1.57-.79-3.85-1.4-6.79-1.2-5.92-2.92-14.46-5.06-25l-7.44-37.1q-2.085-10.5-4.37-21.91c-.2-.94-.38-1.92-.58-2.84a3.75,3.75,0,0,0-1.61-2.17A3.68,3.68,0,0,0,279,367a6.68,6.68,0,0,0-1.43-.08h-3l-12.17-.09-84.16-.74-25.5-.28-6.94-.1H144Z" fill="#263238"/>
        <path id="Path_237" data-name="Path 237" d="M381.63,212.37a66.1,66.1,0,0,1-21.08,49.87q-4.73-13.65-9.43-27.3" fill="#263238"/>
        <path id="Path_238" data-name="Path 238" d="M310.59,158.07c8.09-4.42,17.86-5.06,26.9-3.25s17.46,5.9,25.44,10.52c4.48,2.59,8.94,5.44,12.16,9.48,5.87,7.39,11.68,19.53,12.24,29,.46,7.62-2.46,26.69-5.68,33.61-2.95,6.35-16.78,11.19-23.61,12.76l-62.64-72.9a31.74,31.74,0,0,1,15.19-19.22Z" fill="#263238"/>
        <path id="Path_239" data-name="Path 239" d="M299.79,167.89l15-2.68c-8.21,19.55-10.44,64.25-15.13,84.93-5.54-8-18.39-32.5-17.7-42.23S282,166.24,299.79,167.89Z" fill="#263238"/>
        <path id="Path_240" data-name="Path 240" d="M371,200.43c-.81-11.42-8.21-20.78-19.3-23.61L317.11,168c-14.94-1.61-24.92,16.77-25.9,31.77-1.09,16.67-1.76,34.25.19,46.69,3.91,25,23.07,28.24,23.07,28.24v19.2l11.57,47.91,37.29-51.52,7.72-89.54C371.08,200.31,371,201,371,200.43Z" fill="#ffbe9d"/>
        <path id="Path_241" data-name="Path 241" d="M298.72,218.66a3.21,3.21,0,0,0,3.09,3.24,3.07,3.07,0,0,0,3.31-2.89,3.21,3.21,0,0,0-3.08-3.24,3.07,3.07,0,0,0-3.32,2.89Z" fill="#263238"/>
        <path id="Path_242" data-name="Path 242" d="M295,209.56c.4.42,2.83-1.37,6.28-1.36s6,1.75,6.35,1.33c.19-.19-.22-.94-1.32-1.75a8.82,8.82,0,0,0-5.08-1.58,8.52,8.52,0,0,0-5,1.6C295.13,208.62,294.77,209.37,295,209.56Z" fill="#263238"/>
        <path id="Path_243" data-name="Path 243" d="M328.8,218.66a3.21,3.21,0,0,0,3.09,3.24,3.06,3.06,0,0,0,3.31-2.9,3.21,3.21,0,0,0-3.08-3.24,3.07,3.07,0,0,0-3.32,2.9Z" fill="#263238"/>
        <path id="Path_244" data-name="Path 244" d="M327.73,209.56c.4.42,2.84-1.37,6.29-1.36s6,1.75,6.35,1.33c.18-.19-.22-.94-1.32-1.75A8.88,8.88,0,0,0,334,206.2a8.57,8.57,0,0,0-5,1.6C327.9,208.62,327.54,209.37,327.73,209.56Z" fill="#263238"/>
        <path id="Path_245" data-name="Path 245" d="M317,236.66c0-.19-2.13-.57-5.61-1-.88-.09-1.71-.27-1.86-.87a4.45,4.45,0,0,1,.6-2.61q1.25-3.19,2.62-6.71c3.64-9.54,6.27-17.39,5.89-17.53s-3.65,7.47-7.29,17q-1.32,3.52-2.51,6.74a5.12,5.12,0,0,0-.47,3.46,2.2,2.2,0,0,0,1.45,1.29,5.38,5.38,0,0,0,1.49.21C314.76,236.84,316.93,236.86,317,236.66Z" fill="#263238"/>
        <path id="Path_246" data-name="Path 246" d="M347.64,265.79S339.5,283,314.48,280.57v-5.88a63,63,0,0,0,33.16-8.9Z" fill="#eb996e"/>
        <path id="Path_247" data-name="Path 247" d="M328.82,197.09c.34.94,3.78.5,7.83,1s7.32,1.61,7.86.77c.24-.41-.33-1.29-1.65-2.2a13,13,0,0,0-5.82-2,13.23,13.23,0,0,0-6.13.7C329.42,195.91,328.67,196.64,328.82,197.09Z" fill="#263238"/>
        <path id="Path_248" data-name="Path 248" d="M296.09,199c.6.79,3,0,5.84-.05s5.28.54,5.84-.28c.24-.4-.14-1.18-1.19-1.93a8.48,8.48,0,0,0-9.41.27C296.15,197.81,295.82,198.62,296.09,199Z" fill="#263238"/>
        <path id="Path_249" data-name="Path 249" d="M298,176.92c1.53-3.76,5.66-6,9.71-6.22s8,1.33,11.54,3.36c14.89,8.61,22.55,29.4,37.26,38.31,3.62,2.19,8.33.18,11.41,3.08s5.07,7.54,3.37,11.41a35.078,35.078,0,0,0,5.11-8.63c1.12-3.17,1.26-6.84-.42-9.75-1.27-2.21-3.52-3.89-4.13-6.36-.55-2.18.31-4.45.22-6.69a14.67,14.67,0,0,0-2.29-6.38c-5.77-10.19-13.7-19.41-23.91-25.15a42.37,42.37,0,0,0-21.95-5.67A32.38,32.38,0,0,0,303,166.52c-3.29,3.07-6.75,6.24-5,10.4" fill="#263238"/>
        <path id="Path_250" data-name="Path 250" d="M367.56,218.55c.26-.72,13.31-5.42,13.48,8.44.17,13.47-13.42,10.82-13.45,10.43S367.56,218.55,367.56,218.55Z" fill="#ffbe9d"/>
        <path id="Path_251" data-name="Path 251" d="M371.7,232.28c.06,0,.23.16.63.34a2.38,2.38,0,0,0,1.76,0c1.41-.53,2.59-2.81,2.63-5.23a7.73,7.73,0,0,0-.68-3.36,2.73,2.73,0,0,0-1.79-1.78,1.18,1.18,0,0,0-1.37.65c-.18.38-.09.65-.17.67s-.29-.22-.18-.78a1.5,1.5,0,0,1,.52-.84,1.74,1.74,0,0,1,1.29-.36,3.28,3.28,0,0,1,2.47,2.07,7.84,7.84,0,0,1,.85,3.74c-.06,2.72-1.42,5.27-3.37,5.85a2.5,2.5,0,0,1-2.14-.33C371.72,232.61,371.65,232.31,371.7,232.28Z" fill="#eb996e"/>
        <path id="Path_252" data-name="Path 252" d="M372.92,211.63a5.339,5.339,0,0,1-.81-.45c-.52-.33-1.32-.77-2.26-1.44a46.089,46.089,0,0,1-7.28-6.62,130.478,130.478,0,0,1-8.89-11.55,105.417,105.417,0,0,0-11.11-13.84,42.171,42.171,0,0,0-7.18-5.67,35.33,35.33,0,0,0-7.74-3.52,38.38,38.38,0,0,0-14.27-1.75,36.93,36.93,0,0,0-9.56,1.87c-1.11.34-1.93.71-2.5.93a5.129,5.129,0,0,1-.88.31,6.479,6.479,0,0,1,.83-.42,21.648,21.648,0,0,1,2.47-1,34.46,34.46,0,0,1,9.61-2.08,38.19,38.19,0,0,1,14.47,1.6,35.281,35.281,0,0,1,7.89,3.54,43,43,0,0,1,7.29,5.75,103.2,103.2,0,0,1,11.14,14,139.254,139.254,0,0,0,8.76,11.59,50.3,50.3,0,0,0,7.09,6.72c.92.69,1.69,1.16,2.18,1.52a5.492,5.492,0,0,1,.75.51Z" fill="#455a64"/>
        <path id="Path_253" data-name="Path 253" d="M373.23,234.66a2.65,2.65,0,1,1-.63.2" fill="#fff"/>
        <path id="Path_254" data-name="Path 254" d="M372.6,234.86a3.65,3.65,0,0,0-1.21,1.81,2.28,2.28,0,0,0,.52,2.11,2.36,2.36,0,0,0,4.15-1.31,2.29,2.29,0,0,0-.8-2,3.59,3.59,0,0,0-2-.78,1.214,1.214,0,0,1,.63-.15,2.75,2.75,0,0,1,1.68.59,2.7,2.7,0,0,1,1.08,2.43,2.89,2.89,0,0,1-5.13,1.63,2.7,2.7,0,0,1-.52-2.6,2.66,2.66,0,0,1,1-1.45C372.35,234.87,372.59,234.83,372.6,234.86Z" fill="#263238"/>
        <path id="Path_255" data-name="Path 255" d="M369.53,215.44c.21,3.68.38,7.56-1.32,10.83s-6,5.5-9.18,3.67c-2.61-1.49-3.39-4.84-3.84-7.81-1.27-8.58-1.86-17.25-3.21-25.82Z" fill="#263238"/>
        <path id="Path_256" data-name="Path 256" d="M301.32,170.52c0,.07,1.19-.23,3.34-.3a23.28,23.28,0,0,1,8.92,1.63,29.41,29.41,0,0,1,5.58,2.88,59.271,59.271,0,0,1,5.76,4.4,68.76,68.76,0,0,1,11.28,12.16c1.71,2.4,3.23,4.87,4.87,7.16a34.912,34.912,0,0,0,5.4,6.07,60.388,60.388,0,0,0,11.38,7.61c3.45,1.82,6.33,3.1,8.32,4l2.3,1a4.068,4.068,0,0,0,.83.3,3.861,3.861,0,0,0-.76-.43l-2.25-1.11c-2-1-4.79-2.32-8.18-4.19a62.28,62.28,0,0,1-11.18-7.7,34.111,34.111,0,0,1-5.26-6c-1.61-2.26-3.12-4.73-4.85-7.16a67.668,67.668,0,0,0-11.44-12.25,59.094,59.094,0,0,0-5.88-4.4,29.348,29.348,0,0,0-5.73-2.85,22.37,22.37,0,0,0-9.12-1.42,15.47,15.47,0,0,0-2.49.35,3.2,3.2,0,0,0-.84.25Z" fill="#455a64"/>
        <path id="Path_257" data-name="Path 257" d="M369.9,207.12a6.111,6.111,0,0,0,1.19.8l3.42,2,1.14.65a3.5,3.5,0,0,0,1.48.49,1.42,1.42,0,0,0,.91-.21,1.18,1.18,0,0,0,.5-.89,3,3,0,0,0-.63-1.7l-4-6.34-.54.49a14.12,14.12,0,0,0,9.15,2.73,3.88,3.88,0,0,0,1.23-.21,1.65,1.65,0,0,0,1-.91,1.46,1.46,0,0,0-.23-1.36,5.27,5.27,0,0,0-.76-.84,28.071,28.071,0,0,1-4.59-5.79,48.456,48.456,0,0,1-2.92-6.2,7.059,7.059,0,0,0,.43,1.81,24.448,24.448,0,0,0,2,4.66,26.72,26.72,0,0,0,4.56,6c.5.48,1,1,.81,1.45s-.93.64-1.64.64a13.55,13.55,0,0,1-4.56-.55,13.72,13.72,0,0,1-4.11-2l-1.6-1.18,1.07,1.67,4,6.29a2.56,2.56,0,0,1,.57,1.32c0,.38-.34.6-.77.57a6.68,6.68,0,0,1-2.42-1l-3.52-1.8a6.22,6.22,0,0,0-1.17-.59Z" fill="#455a64"/>
        <path id="Path_258" data-name="Path 258" d="M330.07,243a4.5,4.5,0,0,0-4.65-3.42,4.67,4.67,0,0,0-3.62,2.57,5.79,5.79,0,0,0-.21,4.51l.08.32a5.13,5.13,0,0,0,5.77,1.23,4.79,4.79,0,0,0,2.63-5.21Z" fill="#eb996e"/>
        <path id="Path_259" data-name="Path 259" d="M319.16,247.08c0-.52,3.49-.36,6.12-3.22s2.42-6.6,2.91-6.6c.22,0,.64.86.6,2.44a8.68,8.68,0,0,1-2.23,5.51,7.59,7.59,0,0,1-5.12,2.48C320,247.75,319.13,247.32,319.16,247.08Z" fill="#263238"/>
        <path id="Path_260" data-name="Path 260" d="M436.72,459a.892.892,0,0,1-.23,0l-.7.07-2.67.22c-2.32.19-5.68.41-9.84.66-8.31.49-19.8,1-32.5,1.21s-24.22.09-32.54-.13c-4.16-.1-7.53-.22-9.85-.32l-2.68-.14h2.68l9.86.17c8.32.12,19.82.18,32.52,0s24.18-.66,32.49-1.06l9.85-.49,2.68-.12h.69Z" fill="#fff"/>
      </g>
    </g>
  </g>
</svg>
